<svg width="100" height="100" viewBox="0 0 100 100" fill="none" xmlns="http://www.w3.org/2000/svg">
<g clip-path="url(#clip0_111_26)">
<path d="M47 4H58L84 30V41M47 4L24.967 4.06771C20.0147 4.06771 16 8.13849 16 13.1599V86.9078C16 91.9292 20.0147 96 24.967 96H75.033C79.9853 96 84 91.9292 84 86.9078V41M47 4C51.9817 4 55.5297 8.10869 55.5297 13.1599V27.8085C55.5297 32.8597 55.7788 33.0617 60.7604 33.0617H75.033C81.2601 33.0617 84 35.9488 84 41" stroke="#541DC8" stroke-width="8" stroke-linecap="round" stroke-linejoin="round"/>
<rect y="44" width="100" height="32" rx="4" fill="#541DC8"/>
<path d="M21.04 71C20.8053 71 20.6133 70.9253 20.464 70.776C20.3147 70.6267 20.24 70.4347 20.24 70.2V49.4C20.24 49.1653 20.3147 48.9733 20.464 48.824C20.6133 48.6747 20.8053 48.6 21.04 48.6H30.8C32.6347 48.6 34.1387 48.856 35.312 49.368C36.4853 49.88 37.3493 50.616 37.904 51.576C38.48 52.5147 38.768 53.6347 38.768 54.936C38.768 55.704 38.6187 56.3867 38.32 56.984C38.0427 57.56 37.6907 58.04 37.264 58.424C36.8587 58.808 36.4747 59.0853 36.112 59.256C36.9227 59.64 37.6373 60.2693 38.256 61.144C38.896 62.0187 39.216 63.0427 39.216 64.216C39.216 65.624 38.896 66.84 38.256 67.864C37.6373 68.8667 36.72 69.6453 35.504 70.2C34.3093 70.7333 32.8373 71 31.088 71H21.04ZM25.968 66.84H30.448C31.3653 66.84 32.0587 66.5733 32.528 66.04C32.9973 65.5067 33.232 64.8987 33.232 64.216C33.232 63.4693 32.9867 62.84 32.496 62.328C32.0267 61.816 31.344 61.56 30.448 61.56H25.968V66.84ZM25.968 57.496H30.16C31.0347 57.496 31.6853 57.272 32.112 56.824C32.56 56.376 32.784 55.8 32.784 55.096C32.784 54.4133 32.56 53.8587 32.112 53.432C31.6853 52.984 31.0347 52.76 30.16 52.76H25.968V57.496ZM41.1788 71C41.0081 71 40.8481 70.936 40.6988 70.808C40.5708 70.6587 40.5068 70.4987 40.5068 70.328C40.5068 70.2213 40.5174 70.1253 40.5388 70.04L48.0588 49.496C48.1228 49.2613 48.2508 49.0587 48.4427 48.888C48.6561 48.696 48.9441 48.6 49.3068 48.6H54.0428C54.4054 48.6 54.6828 48.696 54.8748 48.888C55.0881 49.0587 55.2268 49.2613 55.2908 49.496L62.7788 70.04C62.8214 70.1253 62.8428 70.2213 62.8428 70.328C62.8428 70.4987 62.7681 70.6587 62.6188 70.808C62.4908 70.936 62.3308 71 62.1388 71H58.2028C57.8828 71 57.6374 70.9253 57.4668 70.776C57.3174 70.6053 57.2214 70.456 57.1788 70.328L55.9308 67.064H47.3868L46.1708 70.328C46.1281 70.456 46.0321 70.6053 45.8828 70.776C45.7334 70.9253 45.4774 71 45.1148 71H41.1788ZM48.6988 62.456H54.6508L51.6428 54.008L48.6988 62.456ZM68.8118 71C68.5771 71 68.3851 70.9253 68.2358 70.776C68.0864 70.6267 68.0118 70.4347 68.0118 70.2V53.624H62.3158C62.0811 53.624 61.8891 53.5493 61.7398 53.4C61.5904 53.2293 61.5158 53.0373 61.5158 52.824V49.4C61.5158 49.1653 61.5904 48.9733 61.7398 48.824C61.8891 48.6747 62.0811 48.6 62.3158 48.6H79.5318C79.7664 48.6 79.9584 48.6747 80.1078 48.824C80.2571 48.9733 80.3318 49.1653 80.3318 49.4V52.824C80.3318 53.0373 80.2571 53.2293 80.1078 53.4C79.9584 53.5493 79.7664 53.624 79.5318 53.624H73.8358V70.2C73.8358 70.4347 73.7611 70.6267 73.6118 70.776C73.4624 70.9253 73.2704 71 73.0358 71H68.8118Z" fill="white"/>
</g>
<defs>
<clipPath id="clip0_111_26">
<rect width="100" height="100" fill="white"/>
</clipPath>
</defs>
</svg>
