<svg width="100" height="100" viewBox="0 0 100 100" fill="none" xmlns="http://www.w3.org/2000/svg">
<g clip-path="url(#clip0_112_59)">
<path d="M47 4H58L84 30V41M47 4L24.967 4.06771C20.0147 4.06771 16 8.13849 16 13.1599V86.9078C16 91.9292 20.0147 96 24.967 96H75.033C79.9853 96 84 91.9292 84 86.9078V41M47 4C51.9817 4 55.5297 8.10869 55.5297 13.1599V27.8085C55.5297 32.8597 55.7788 33.0617 60.7604 33.0617H75.033C81.2601 33.0617 84 35.9488 84 41" stroke="#5C6BC0" stroke-width="8" stroke-linecap="round" stroke-linejoin="round"/>
<rect y="44" width="100" height="32" rx="4" fill="#5C6BC0"/>
<path d="M49.6896 71.32C47.663 71.32 45.9243 70.9893 44.4736 70.328C43.0443 69.6667 41.9243 68.696 41.1136 67.416C40.3243 66.136 39.887 64.5467 39.8016 62.648C39.7803 61.7733 39.7696 60.8347 39.7696 59.832C39.7696 58.8293 39.7803 57.8693 39.8016 56.952C39.887 55.096 40.335 53.528 41.1456 52.248C41.9563 50.9467 43.087 49.9653 44.5376 49.304C45.9883 48.6213 47.7056 48.28 49.6896 48.28C51.0976 48.28 52.399 48.4613 53.5936 48.824C54.7883 49.1653 55.8336 49.6773 56.7296 50.36C57.6256 51.0213 58.319 51.832 58.8096 52.792C59.3216 53.7307 59.5883 54.7973 59.6096 55.992C59.631 56.184 59.567 56.344 59.4176 56.472C59.2896 56.6 59.1296 56.664 58.9376 56.664H54.6176C54.3403 56.664 54.127 56.6107 53.9776 56.504C53.8283 56.376 53.7003 56.152 53.5936 55.832C53.295 54.7013 52.8043 53.9333 52.1216 53.528C51.4603 53.1013 50.639 52.888 49.6576 52.888C48.4843 52.888 47.5563 53.2187 46.8736 53.88C46.191 54.52 45.8176 55.5973 45.7536 57.112C45.6896 58.8613 45.6896 60.6533 45.7536 62.488C45.8176 64.0027 46.191 65.0907 46.8736 65.752C47.5563 66.392 48.4843 66.712 49.6576 66.712C50.639 66.712 51.471 66.4987 52.1536 66.072C52.8363 65.6453 53.3163 64.8773 53.5936 63.768C53.679 63.448 53.7963 63.2347 53.9456 63.128C54.1163 63 54.3403 62.936 54.6176 62.936H58.9376C59.1296 62.936 59.2896 63 59.4176 63.128C59.567 63.256 59.631 63.416 59.6096 63.608C59.5883 64.8027 59.3216 65.88 58.8096 66.84C58.319 67.7787 57.6256 68.5893 56.7296 69.272C55.8336 69.9333 54.7883 70.4453 53.5936 70.808C52.399 71.1493 51.0976 71.32 49.6896 71.32Z" fill="white"/>
</g>
<defs>
<clipPath id="clip0_112_59">
<rect width="100" height="100" fill="white"/>
</clipPath>
</defs>
</svg>
