<svg width="100" height="100" viewBox="0 0 100 100" fill="none" xmlns="http://www.w3.org/2000/svg">
<g clip-path="url(#clip0_112_16)">
<path d="M47 4H58L84 30V41M47 4L24.967 4.06771C20.0147 4.06771 16 8.13849 16 13.1599V86.9078C16 91.9292 20.0147 96 24.967 96H75.033C79.9853 96 84 91.9292 84 86.9078V41M47 4C51.9817 4 55.5297 8.10869 55.5297 13.1599V27.8085C55.5297 32.8597 55.7788 33.0617 60.7604 33.0617H75.033C81.2601 33.0617 84 35.9488 84 41" stroke="#659BD3" stroke-width="8" stroke-linecap="round" stroke-linejoin="round"/>
<rect y="44" width="100" height="32" rx="4" fill="#659BD3"/>
<path d="M27.5646 71.32C25.538 71.32 23.7993 70.9893 22.3486 70.328C20.9193 69.6667 19.7993 68.696 18.9886 67.416C18.1993 66.136 17.762 64.5467 17.6766 62.648C17.6553 61.7733 17.6446 60.8347 17.6446 59.832C17.6446 58.8293 17.6553 57.8693 17.6766 56.952C17.762 55.096 18.21 53.528 19.0206 52.248C19.8313 50.9467 20.962 49.9653 22.4126 49.304C23.8633 48.6213 25.5806 48.28 27.5646 48.28C28.9726 48.28 30.274 48.4613 31.4686 48.824C32.6633 49.1653 33.7086 49.6773 34.6046 50.36C35.5006 51.0213 36.194 51.832 36.6846 52.792C37.1966 53.7307 37.4633 54.7973 37.4846 55.992C37.506 56.184 37.442 56.344 37.2926 56.472C37.1646 56.6 37.0046 56.664 36.8126 56.664H32.4926C32.2153 56.664 32.002 56.6107 31.8526 56.504C31.7033 56.376 31.5753 56.152 31.4686 55.832C31.17 54.7013 30.6793 53.9333 29.9966 53.528C29.3353 53.1013 28.514 52.888 27.5326 52.888C26.3593 52.888 25.4313 53.2187 24.7486 53.88C24.066 54.52 23.6926 55.5973 23.6286 57.112C23.5646 58.8613 23.5646 60.6533 23.6286 62.488C23.6926 64.0027 24.066 65.0907 24.7486 65.752C25.4313 66.392 26.3593 66.712 27.5326 66.712C28.514 66.712 29.346 66.4987 30.0286 66.072C30.7113 65.6453 31.1913 64.8773 31.4686 63.768C31.554 63.448 31.6713 63.2347 31.8206 63.128C31.9913 63 32.2153 62.936 32.4926 62.936H36.8126C37.0046 62.936 37.1646 63 37.2926 63.128C37.442 63.256 37.506 63.416 37.4846 63.608C37.4633 64.8027 37.1966 65.88 36.6846 66.84C36.194 67.7787 35.5006 68.5893 34.6046 69.272C33.7086 69.9333 32.6633 70.4453 31.4686 70.808C30.274 71.1493 28.9726 71.32 27.5646 71.32ZM41.6494 71C41.4147 71 41.2227 70.9253 41.0734 70.776C40.924 70.6267 40.8494 70.4347 40.8494 70.2V49.4C40.8494 49.1653 40.924 48.9733 41.0734 48.824C41.2227 48.6747 41.4147 48.6 41.6494 48.6H50.6094C52.38 48.6 53.916 48.8773 55.2174 49.432C56.54 49.9653 57.564 50.776 58.2894 51.864C59.036 52.952 59.4094 54.328 59.4094 55.992C59.4094 57.6347 59.036 58.9893 58.2894 60.056C57.564 61.1227 56.54 61.912 55.2174 62.424C53.916 62.936 52.38 63.192 50.6094 63.192H46.8014V70.2C46.8014 70.4347 46.716 70.6267 46.5454 70.776C46.396 70.9253 46.204 71 45.9694 71H41.6494ZM46.7054 58.776H50.4494C51.3667 58.776 52.092 58.5413 52.6254 58.072C53.18 57.6027 53.4574 56.888 53.4574 55.928C53.4574 55.1173 53.2227 54.4347 52.7534 53.88C52.284 53.3253 51.516 53.048 50.4494 53.048H46.7054V58.776ZM63.2744 71C63.0397 71 62.8477 70.9253 62.6984 70.776C62.549 70.6267 62.4744 70.4347 62.4744 70.2V49.4C62.4744 49.1653 62.549 48.9733 62.6984 48.824C62.8477 48.6747 63.0397 48.6 63.2744 48.6H72.2344C74.005 48.6 75.541 48.8773 76.8424 49.432C78.165 49.9653 79.189 50.776 79.9144 51.864C80.661 52.952 81.0344 54.328 81.0344 55.992C81.0344 57.6347 80.661 58.9893 79.9144 60.056C79.189 61.1227 78.165 61.912 76.8424 62.424C75.541 62.936 74.005 63.192 72.2344 63.192H68.4264V70.2C68.4264 70.4347 68.341 70.6267 68.1704 70.776C68.021 70.9253 67.829 71 67.5944 71H63.2744ZM68.3304 58.776H72.0744C72.9917 58.776 73.717 58.5413 74.2504 58.072C74.805 57.6027 75.0824 56.888 75.0824 55.928C75.0824 55.1173 74.8477 54.4347 74.3784 53.88C73.909 53.3253 73.141 53.048 72.0744 53.048H68.3304V58.776Z" fill="white"/>
</g>
<defs>
<clipPath id="clip0_112_16">
<rect width="100" height="100" fill="white"/>
</clipPath>
</defs>
</svg>
