<svg width="100" height="100" viewBox="0 0 100 100" fill="none" xmlns="http://www.w3.org/2000/svg">
<g clip-path="url(#clip0_112_20)">
<path d="M47 4H58L84 30V41M47 4L24.967 4.06771C20.0147 4.06771 16 8.13849 16 13.1599V86.9078C16 91.9292 20.0147 96 24.967 96H75.033C79.9853 96 84 91.9292 84 86.9078V41M47 4C51.9817 4 55.5297 8.10869 55.5297 13.1599V27.8085C55.5297 32.8597 55.7788 33.0617 60.7604 33.0617H75.033C81.2601 33.0617 84 35.9488 84 41" stroke="#953DAC" stroke-width="8" stroke-linecap="round" stroke-linejoin="round"/>
<rect y="44" width="100" height="32" rx="4" fill="#953DAC"/>
<path d="M38.5959 71.32C36.5692 71.32 34.8305 70.9893 33.3799 70.328C31.9505 69.6667 30.8305 68.696 30.0199 67.416C29.2305 66.136 28.7932 64.5467 28.7079 62.648C28.6865 61.7733 28.6759 60.8347 28.6759 59.832C28.6759 58.8293 28.6865 57.8693 28.7079 56.952C28.7932 55.096 29.2412 53.528 30.0519 52.248C30.8625 50.9467 31.9932 49.9653 33.4439 49.304C34.8945 48.6213 36.6119 48.28 38.5959 48.28C40.0039 48.28 41.3052 48.4613 42.4999 48.824C43.6945 49.1653 44.7399 49.6773 45.6359 50.36C46.5319 51.0213 47.2252 51.832 47.7159 52.792C48.2279 53.7307 48.4945 54.7973 48.5159 55.992C48.5372 56.184 48.4732 56.344 48.3239 56.472C48.1959 56.6 48.0359 56.664 47.8439 56.664H43.5239C43.2465 56.664 43.0332 56.6107 42.8839 56.504C42.7345 56.376 42.6065 56.152 42.4999 55.832C42.2012 54.7013 41.7105 53.9333 41.0279 53.528C40.3665 53.1013 39.5452 52.888 38.5639 52.888C37.3905 52.888 36.4625 53.2187 35.7799 53.88C35.0972 54.52 34.7239 55.5973 34.6599 57.112C34.5959 58.8613 34.5959 60.6533 34.6599 62.488C34.7239 64.0027 35.0972 65.0907 35.7799 65.752C36.4625 66.392 37.3905 66.712 38.5639 66.712C39.5452 66.712 40.3772 66.4987 41.0599 66.072C41.7425 65.6453 42.2225 64.8773 42.4999 63.768C42.5852 63.448 42.7025 63.2347 42.8519 63.128C43.0225 63 43.2465 62.936 43.5239 62.936H47.8439C48.0359 62.936 48.1959 63 48.3239 63.128C48.4732 63.256 48.5372 63.416 48.5159 63.608C48.4945 64.8027 48.2279 65.88 47.7159 66.84C47.2252 67.7787 46.5319 68.5893 45.6359 69.272C44.7399 69.9333 43.6945 70.4453 42.4999 70.808C41.3052 71.1493 40.0039 71.32 38.5959 71.32ZM60.2326 71.32C58.0993 71.32 56.3286 71.0213 54.9206 70.424C53.5126 69.8053 52.446 69.0053 51.7206 68.024C50.9953 67.0427 50.6113 65.9973 50.5686 64.888C50.5686 64.7173 50.6326 64.568 50.7606 64.44C50.91 64.2907 51.0806 64.216 51.2726 64.216H55.3046C55.6033 64.216 55.8273 64.2693 55.9766 64.376C56.1473 64.4827 56.2966 64.6213 56.4246 64.792C56.5953 65.112 56.83 65.4213 57.1286 65.72C57.4486 66.0187 57.854 66.264 58.3446 66.456C58.8566 66.6267 59.486 66.712 60.2326 66.712C61.47 66.712 62.398 66.52 63.0166 66.136C63.6566 65.752 63.9766 65.2293 63.9766 64.568C63.9766 64.0987 63.806 63.7147 63.4646 63.416C63.1233 63.096 62.5686 62.8187 61.8006 62.584C61.054 62.328 60.0513 62.072 58.7926 61.816C57.1713 61.4747 55.7846 61.0373 54.6326 60.504C53.502 59.9493 52.638 59.2347 52.0406 58.36C51.4433 57.464 51.1446 56.3547 51.1446 55.032C51.1446 53.7307 51.5073 52.568 52.2326 51.544C52.9793 50.52 54.014 49.72 55.3366 49.144C56.6593 48.568 58.2273 48.28 60.0406 48.28C61.5126 48.28 62.8033 48.472 63.9126 48.856C65.0433 49.24 65.9926 49.752 66.7606 50.392C67.5286 51.032 68.1046 51.7147 68.4886 52.44C68.894 53.144 69.1073 53.8373 69.1286 54.52C69.1286 54.6907 69.0646 54.8507 68.9366 55C68.8086 55.128 68.6486 55.192 68.4566 55.192H64.2326C63.998 55.192 63.7953 55.1493 63.6246 55.064C63.454 54.9787 63.3046 54.84 63.1766 54.648C63.0486 54.1787 62.7073 53.7733 62.1526 53.432C61.6193 53.0693 60.9153 52.888 60.0406 52.888C59.102 52.888 58.366 53.0587 57.8326 53.4C57.3206 53.72 57.0646 54.2213 57.0646 54.904C57.0646 55.3307 57.2033 55.704 57.4806 56.024C57.7793 56.344 58.2593 56.6213 58.9206 56.856C59.6033 57.0907 60.5313 57.336 61.7046 57.592C63.646 57.9547 65.214 58.4133 66.4086 58.968C67.6033 59.5013 68.478 60.2053 69.0326 61.08C69.5873 61.9333 69.8646 63.0107 69.8646 64.312C69.8646 65.7627 69.4486 67.0213 68.6166 68.088C67.806 69.1333 66.6753 69.9333 65.2246 70.488C63.774 71.0427 62.11 71.32 60.2326 71.32Z" fill="white"/>
</g>
<defs>
<clipPath id="clip0_112_20">
<rect width="100" height="100" fill="white"/>
</clipPath>
</defs>
</svg>
