<svg width="100" height="100" viewBox="0 0 100 100" fill="none" xmlns="http://www.w3.org/2000/svg">
<g clip-path="url(#clip0_109_43)">
<path d="M47 4H58L84 30V41M47 4L24.967 4.06771C20.0147 4.06771 16 8.13849 16 13.1599V86.9078C16 91.9292 20.0147 96 24.967 96H75.033C79.9853 96 84 91.9292 84 86.9078V41M47 4C51.9817 4 55.5297 8.10869 55.5297 13.1599V27.8085C55.5297 32.8597 55.7788 33.0617 60.7604 33.0617H75.033C81.2601 33.0617 84 35.9488 84 41" stroke="#214CE5" stroke-width="8" stroke-linecap="round" stroke-linejoin="round"/>
<rect y="44" width="100" height="32" rx="4" fill="#214CE5"/>
<path d="M28.424 71.32C26.3973 71.32 24.6587 70.9893 23.208 70.328C21.7787 69.6667 20.6587 68.696 19.848 67.416C19.0587 66.136 18.6213 64.5467 18.536 62.648C18.5147 61.7733 18.504 60.8347 18.504 59.832C18.504 58.8293 18.5147 57.8693 18.536 56.952C18.6213 55.096 19.0693 53.528 19.88 52.248C20.6907 50.9467 21.8213 49.9653 23.272 49.304C24.7227 48.6213 26.44 48.28 28.424 48.28C29.832 48.28 31.1333 48.4613 32.328 48.824C33.5227 49.1653 34.568 49.6773 35.464 50.36C36.36 51.0213 37.0533 51.832 37.544 52.792C38.056 53.7307 38.3227 54.7973 38.344 55.992C38.3653 56.184 38.3013 56.344 38.152 56.472C38.024 56.6 37.864 56.664 37.672 56.664H33.352C33.0747 56.664 32.8613 56.6107 32.712 56.504C32.5627 56.376 32.4347 56.152 32.328 55.832C32.0293 54.7013 31.5387 53.9333 30.856 53.528C30.1947 53.1013 29.3733 52.888 28.392 52.888C27.2187 52.888 26.2907 53.2187 25.608 53.88C24.9253 54.52 24.552 55.5973 24.488 57.112C24.424 58.8613 24.424 60.6533 24.488 62.488C24.552 64.0027 24.9253 65.0907 25.608 65.752C26.2907 66.392 27.2187 66.712 28.392 66.712C29.3733 66.712 30.2053 66.4987 30.888 66.072C31.5707 65.6453 32.0507 64.8773 32.328 63.768C32.4133 63.448 32.5307 63.2347 32.68 63.128C32.8507 63 33.0747 62.936 33.352 62.936H37.672C37.864 62.936 38.024 63 38.152 63.128C38.3013 63.256 38.3653 63.416 38.344 63.608C38.3227 64.8027 38.056 65.88 37.544 66.84C37.0533 67.7787 36.36 68.5893 35.464 69.272C34.568 69.9333 33.5227 70.4453 32.328 70.808C31.1333 71.1493 29.832 71.32 28.424 71.32ZM50.0608 71.32C47.9274 71.32 46.1568 71.0213 44.7488 70.424C43.3408 69.8053 42.2741 69.0053 41.5488 68.024C40.8234 67.0427 40.4394 65.9973 40.3968 64.888C40.3968 64.7173 40.4608 64.568 40.5888 64.44C40.7381 64.2907 40.9088 64.216 41.1008 64.216H45.1328C45.4314 64.216 45.6554 64.2693 45.8048 64.376C45.9754 64.4827 46.1248 64.6213 46.2528 64.792C46.4234 65.112 46.6581 65.4213 46.9568 65.72C47.2768 66.0187 47.6821 66.264 48.1728 66.456C48.6848 66.6267 49.3141 66.712 50.0608 66.712C51.2981 66.712 52.2261 66.52 52.8448 66.136C53.4848 65.752 53.8048 65.2293 53.8048 64.568C53.8048 64.0987 53.6341 63.7147 53.2928 63.416C52.9514 63.096 52.3968 62.8187 51.6288 62.584C50.8821 62.328 49.8794 62.072 48.6208 61.816C46.9994 61.4747 45.6128 61.0373 44.4608 60.504C43.3301 59.9493 42.4661 59.2347 41.8688 58.36C41.2714 57.464 40.9728 56.3547 40.9728 55.032C40.9728 53.7307 41.3354 52.568 42.0608 51.544C42.8074 50.52 43.8421 49.72 45.1648 49.144C46.4874 48.568 48.0554 48.28 49.8688 48.28C51.3408 48.28 52.6314 48.472 53.7408 48.856C54.8714 49.24 55.8208 49.752 56.5888 50.392C57.3568 51.032 57.9328 51.7147 58.3168 52.44C58.7221 53.144 58.9354 53.8373 58.9568 54.52C58.9568 54.6907 58.8928 54.8507 58.7648 55C58.6368 55.128 58.4768 55.192 58.2847 55.192H54.0608C53.8261 55.192 53.6234 55.1493 53.4528 55.064C53.2821 54.9787 53.1328 54.84 53.0048 54.648C52.8768 54.1787 52.5354 53.7733 51.9808 53.432C51.4474 53.0693 50.7434 52.888 49.8688 52.888C48.9301 52.888 48.1941 53.0587 47.6608 53.4C47.1488 53.72 46.8928 54.2213 46.8928 54.904C46.8928 55.3307 47.0314 55.704 47.3088 56.024C47.6074 56.344 48.0874 56.6213 48.7488 56.856C49.4314 57.0907 50.3594 57.336 51.5328 57.592C53.4741 57.9547 55.0421 58.4133 56.2368 58.968C57.4314 59.5013 58.3061 60.2053 58.8608 61.08C59.4154 61.9333 59.6928 63.0107 59.6928 64.312C59.6928 65.7627 59.2768 67.0213 58.4448 68.088C57.6341 69.1333 56.5034 69.9333 55.0528 70.488C53.6021 71.0427 51.9381 71.32 50.0608 71.32ZM71.2483 71.32C69.1149 71.32 67.3443 71.0213 65.9363 70.424C64.5283 69.8053 63.4616 69.0053 62.7363 68.024C62.0109 67.0427 61.6269 65.9973 61.5843 64.888C61.5843 64.7173 61.6483 64.568 61.7763 64.44C61.9256 64.2907 62.0963 64.216 62.2883 64.216H66.3203C66.6189 64.216 66.8429 64.2693 66.9923 64.376C67.1629 64.4827 67.3123 64.6213 67.4403 64.792C67.6109 65.112 67.8456 65.4213 68.1443 65.72C68.4643 66.0187 68.8696 66.264 69.3603 66.456C69.8723 66.6267 70.5016 66.712 71.2483 66.712C72.4856 66.712 73.4136 66.52 74.0323 66.136C74.6723 65.752 74.9923 65.2293 74.9923 64.568C74.9923 64.0987 74.8216 63.7147 74.4803 63.416C74.1389 63.096 73.5843 62.8187 72.8163 62.584C72.0696 62.328 71.0669 62.072 69.8083 61.816C68.1869 61.4747 66.8003 61.0373 65.6483 60.504C64.5176 59.9493 63.6536 59.2347 63.0563 58.36C62.4589 57.464 62.1603 56.3547 62.1603 55.032C62.1603 53.7307 62.5229 52.568 63.2483 51.544C63.9949 50.52 65.0296 49.72 66.3523 49.144C67.6749 48.568 69.2429 48.28 71.0563 48.28C72.5283 48.28 73.8189 48.472 74.9283 48.856C76.0589 49.24 77.0083 49.752 77.7763 50.392C78.5443 51.032 79.1203 51.7147 79.5043 52.44C79.9096 53.144 80.1229 53.8373 80.1443 54.52C80.1443 54.6907 80.0803 54.8507 79.9523 55C79.8243 55.128 79.6643 55.192 79.4722 55.192H75.2483C75.0136 55.192 74.8109 55.1493 74.6403 55.064C74.4696 54.9787 74.3203 54.84 74.1923 54.648C74.0643 54.1787 73.7229 53.7733 73.1683 53.432C72.6349 53.0693 71.9309 52.888 71.0563 52.888C70.1176 52.888 69.3816 53.0587 68.8483 53.4C68.3363 53.72 68.0803 54.2213 68.0803 54.904C68.0803 55.3307 68.2189 55.704 68.4963 56.024C68.7949 56.344 69.2749 56.6213 69.9363 56.856C70.6189 57.0907 71.5469 57.336 72.7203 57.592C74.6616 57.9547 76.2296 58.4133 77.4243 58.968C78.6189 59.5013 79.4936 60.2053 80.0483 61.08C80.6029 61.9333 80.8803 63.0107 80.8803 64.312C80.8803 65.7627 80.4643 67.0213 79.6323 68.088C78.8216 69.1333 77.6909 69.9333 76.2403 70.488C74.7896 71.0427 73.1256 71.32 71.2483 71.32Z" fill="white"/>
</g>
<defs>
<clipPath id="clip0_109_43">
<rect width="100" height="100" fill="white"/>
</clipPath>
</defs>
</svg>
