<svg width="100" height="100" viewBox="0 0 100 100" fill="none" xmlns="http://www.w3.org/2000/svg">
<g clip-path="url(#clip0_112_47)">
<path d="M47 4H58L84 30V41M47 4L24.967 4.06771C20.0147 4.06771 16 8.13849 16 13.1599V86.9078C16 91.9292 20.0147 96 24.967 96H75.033C79.9853 96 84 91.9292 84 86.9078V41M47 4C51.9817 4 55.5297 8.10869 55.5297 13.1599V27.8085C55.5297 32.8597 55.7788 33.0617 60.7604 33.0617H75.033C81.2601 33.0617 84 35.9488 84 41" stroke="#FF0000" stroke-width="8" stroke-linecap="round" stroke-linejoin="round"/>
<rect y="44" width="100" height="32" rx="4" fill="#FF0000"/>
<path d="M21.0556 71C20.821 71 20.629 70.9253 20.4796 70.776C20.3303 70.6267 20.2556 70.4347 20.2556 70.2V49.4C20.2556 49.1653 20.3303 48.9733 20.4796 48.824C20.629 48.6747 20.821 48.6 21.0556 48.6H35.9996C36.2343 48.6 36.4263 48.6747 36.5756 48.824C36.725 48.9733 36.7996 49.1653 36.7996 49.4V52.408C36.7996 52.6427 36.725 52.8347 36.5756 52.984C36.4263 53.1333 36.2343 53.208 35.9996 53.208H25.7916V57.528H35.2956C35.5303 57.528 35.7223 57.6133 35.8716 57.784C36.021 57.9333 36.0956 58.1253 36.0956 58.36V61.144C36.0956 61.3573 36.021 61.5493 35.8716 61.72C35.7223 61.8693 35.5303 61.944 35.2956 61.944H25.7916V66.392H36.2556C36.4903 66.392 36.6823 66.4667 36.8316 66.616C36.981 66.7653 37.0556 66.9573 37.0556 67.192V70.2C37.0556 70.4347 36.981 70.6267 36.8316 70.776C36.6823 70.9253 36.4903 71 36.2556 71H21.0556ZM39.5091 71C39.3171 71 39.1465 70.936 38.9971 70.808C38.8691 70.6587 38.8051 70.4987 38.8051 70.328C38.8051 70.264 38.8158 70.2 38.8371 70.136C38.8585 70.072 38.8905 70.008 38.9331 69.944L45.9091 59.576L39.4451 49.656C39.3811 49.528 39.3491 49.4 39.3491 49.272C39.3491 49.1013 39.4131 48.952 39.5411 48.824C39.6691 48.6747 39.8291 48.6 40.0211 48.6H44.6611C44.9811 48.6 45.2265 48.6853 45.3971 48.856C45.5678 49.0053 45.6851 49.144 45.7491 49.272L49.5891 55.096L53.4611 49.272C53.5465 49.144 53.6745 49.0053 53.8451 48.856C54.0158 48.6853 54.2611 48.6 54.5811 48.6H58.9651C59.1571 48.6 59.3171 48.6747 59.4451 48.824C59.5945 48.952 59.6691 49.1013 59.6691 49.272C59.6691 49.4213 59.6265 49.5493 59.5411 49.656L53.0451 59.544L60.0851 69.944C60.1278 70.008 60.1491 70.072 60.1491 70.136C60.1705 70.2 60.1811 70.264 60.1811 70.328C60.1811 70.4987 60.1171 70.6587 59.9891 70.808C59.8611 70.936 59.7011 71 59.5091 71H54.7411C54.4211 71 54.1651 70.9253 53.9731 70.776C53.8025 70.6053 53.6851 70.4667 53.6211 70.36L49.3651 64.216L45.2051 70.36C45.1411 70.4667 45.0238 70.6053 44.8531 70.776C44.6825 70.9253 44.4371 71 44.1171 71H39.5091ZM63.5869 71C63.3522 71 63.1602 70.9253 63.0109 70.776C62.8615 70.6267 62.7869 70.4347 62.7869 70.2V49.4C62.7869 49.1653 62.8615 48.9733 63.0109 48.824C63.1602 48.6747 63.3522 48.6 63.5869 48.6H78.5309C78.7655 48.6 78.9575 48.6747 79.1069 48.824C79.2562 48.9733 79.3309 49.1653 79.3309 49.4V52.408C79.3309 52.6427 79.2562 52.8347 79.1069 52.984C78.9575 53.1333 78.7655 53.208 78.5309 53.208H68.3229V57.528H77.8269C78.0615 57.528 78.2535 57.6133 78.4029 57.784C78.5522 57.9333 78.6269 58.1253 78.6269 58.36V61.144C78.6269 61.3573 78.5522 61.5493 78.4029 61.72C78.2535 61.8693 78.0615 61.944 77.8269 61.944H68.3229V66.392H78.7869C79.0215 66.392 79.2135 66.4667 79.3629 66.616C79.5122 66.7653 79.5869 66.9573 79.5869 67.192V70.2C79.5869 70.4347 79.5122 70.6267 79.3629 70.776C79.2135 70.9253 79.0215 71 78.7869 71H63.5869Z" fill="white"/>
</g>
<defs>
<clipPath id="clip0_112_47">
<rect width="100" height="100" fill="white"/>
</clipPath>
</defs>
</svg>
