<svg width="100" height="100" viewBox="0 0 100 100" fill="none" xmlns="http://www.w3.org/2000/svg">
<g clip-path="url(#clip0_109_18)">
<path d="M47 4H58L84 30V41M47 4L24.967 4.06771C20.0147 4.06771 16 8.13849 16 13.1599V86.9078C16 91.9292 20.0147 96 24.967 96H75.033C79.9853 96 84 91.9292 84 86.9078V41M47 4C51.9817 4 55.5297 8.10869 55.5297 13.1599V27.8085C55.5297 32.8597 55.7788 33.0617 60.7604 33.0617H75.033C81.2601 33.0617 84 35.9488 84 41" stroke="#E44D26" stroke-width="8" stroke-linecap="round" stroke-linejoin="round"/>
<rect y="44" width="100" height="32" rx="4" fill="#E44D26"/>
<path d="M8.04 71C7.80533 71 7.61333 70.9253 7.464 70.776C7.31467 70.6267 7.24 70.4347 7.24 70.2V49.4C7.24 49.1653 7.31467 48.9733 7.464 48.824C7.61333 48.6747 7.80533 48.6 8.04 48.6H12.168C12.4027 48.6 12.5947 48.6747 12.744 48.824C12.8933 48.9733 12.968 49.1653 12.968 49.4V57.112H20.872V49.4C20.872 49.1653 20.9467 48.9733 21.096 48.824C21.2453 48.6747 21.4373 48.6 21.672 48.6H25.8C26.0347 48.6 26.2267 48.6747 26.376 48.824C26.5253 48.9733 26.6 49.1653 26.6 49.4V70.2C26.6 70.4347 26.5253 70.6267 26.376 70.776C26.2267 70.9253 26.0347 71 25.8 71H21.672C21.4373 71 21.2453 70.9253 21.096 70.776C20.9467 70.6267 20.872 70.4347 20.872 70.2V62.232H12.968V70.2C12.968 70.4347 12.8933 70.6267 12.744 70.776C12.5947 70.9253 12.4027 71 12.168 71H8.04ZM36.8118 71C36.5771 71 36.3851 70.9253 36.2358 70.776C36.0864 70.6267 36.0118 70.4347 36.0118 70.2V53.624H30.3158C30.0811 53.624 29.8891 53.5493 29.7398 53.4C29.5904 53.2293 29.5158 53.0373 29.5158 52.824V49.4C29.5158 49.1653 29.5904 48.9733 29.7398 48.824C29.8891 48.6747 30.0811 48.6 30.3158 48.6H47.5318C47.7664 48.6 47.9584 48.6747 48.1078 48.824C48.2571 48.9733 48.3318 49.1653 48.3318 49.4V52.824C48.3318 53.0373 48.2571 53.2293 48.1078 53.4C47.9584 53.5493 47.7664 53.624 47.5318 53.624H41.8358V70.2C41.8358 70.4347 41.7611 70.6267 41.6118 70.776C41.4624 70.9253 41.2704 71 41.0358 71H36.8118ZM52.04 71C51.8267 71 51.6347 70.9253 51.464 70.776C51.3147 70.6267 51.24 70.4347 51.24 70.2V49.4C51.24 49.1653 51.3147 48.9733 51.464 48.824C51.6347 48.6747 51.8267 48.6 52.04 48.6H55.496C55.8373 48.6 56.0933 48.696 56.264 48.888C56.456 49.0587 56.5733 49.1973 56.616 49.304L62.248 59.416L67.88 49.304C67.944 49.1973 68.0507 49.0587 68.2 48.888C68.3707 48.696 68.6373 48.6 69 48.6H72.424C72.6587 48.6 72.8507 48.6747 73 48.824C73.1707 48.9733 73.256 49.1653 73.256 49.4V70.2C73.256 70.4347 73.1707 70.6267 73 70.776C72.8507 70.9253 72.6587 71 72.424 71H68.616C68.3813 71 68.1787 70.9253 68.008 70.776C67.8587 70.6267 67.784 70.4347 67.784 70.2V58.2L64.168 64.888C64.0827 65.08 63.9547 65.2507 63.784 65.4C63.6133 65.5493 63.3787 65.624 63.08 65.624H61.416C61.1173 65.624 60.8827 65.5493 60.712 65.4C60.5413 65.2507 60.4027 65.08 60.296 64.888L56.68 58.2V70.2C56.68 70.4347 56.6053 70.6267 56.456 70.776C56.3067 70.9253 56.1147 71 55.88 71H52.04ZM78.5088 71C78.2741 71 78.0821 70.9253 77.9328 70.776C77.7834 70.6267 77.7088 70.4347 77.7088 70.2V49.4C77.7088 49.1653 77.7834 48.9733 77.9328 48.824C78.0821 48.6747 78.2741 48.6 78.5088 48.6H82.7328C82.9461 48.6 83.1274 48.6747 83.2768 48.824C83.4474 48.9733 83.5328 49.1653 83.5328 49.4V66.168H93.1968C93.4314 66.168 93.6234 66.2533 93.7728 66.424C93.9434 66.5733 94.0288 66.7653 94.0288 67V70.2C94.0288 70.4347 93.9434 70.6267 93.7728 70.776C93.6234 70.9253 93.4314 71 93.1968 71H78.5088Z" fill="white"/>
</g>
<defs>
<clipPath id="clip0_109_18">
<rect width="100" height="100" fill="white"/>
</clipPath>
</defs>
</svg>
