<svg width="100" height="100" viewBox="0 0 100 100" fill="none" xmlns="http://www.w3.org/2000/svg">
<path d="M84 86.9078C84 91.9292 79.9853 96 75.033 96H24.967C20.0147 96 16 91.9292 16 86.9078V13.1599C16 8.13849 20.0147 4.06771 24.967 4.06771L47 4C51.9817 4 55.5297 8.10869 55.5297 13.1599V27.8085C55.5297 32.8597 55.7788 33.0617 60.7604 33.0617H75.033C81.2601 33.0617 84 35.9488 84 41V86.9078Z" fill="#E44D26"/>
<path d="M47 4H58L84 30V41M47 4L24.967 4.06771C20.0147 4.06771 16 8.13849 16 13.1599V86.9078C16 91.9292 20.0147 96 24.967 96H75.033C79.9853 96 84 91.9292 84 86.9078V41M47 4C51.9817 4 55.5297 8.10869 55.5297 13.1599V27.8085C55.5297 32.8597 55.7788 33.0617 60.7604 33.0617H75.033C81.2601 33.0617 84 35.9488 84 41" stroke="#E44D26" stroke-width="8" stroke-linecap="round" stroke-linejoin="round"/>
<path d="M26.45 62.6C26.318 62.6 26.21 62.558 26.126 62.474C26.042 62.39 26 62.282 26 62.15V50.45C26 50.318 26.042 50.21 26.126 50.126C26.21 50.042 26.318 50 26.45 50H28.772C28.904 50 29.012 50.042 29.096 50.126C29.18 50.21 29.222 50.318 29.222 50.45V54.788H33.668V50.45C33.668 50.318 33.71 50.21 33.794 50.126C33.878 50.042 33.986 50 34.118 50H36.44C36.572 50 36.68 50.042 36.764 50.126C36.848 50.21 36.89 50.318 36.89 50.45V62.15C36.89 62.282 36.848 62.39 36.764 62.474C36.68 62.558 36.572 62.6 36.44 62.6H34.118C33.986 62.6 33.878 62.558 33.794 62.474C33.71 62.39 33.668 62.282 33.668 62.15V57.668H29.222V62.15C29.222 62.282 29.18 62.39 29.096 62.474C29.012 62.558 28.904 62.6 28.772 62.6H26.45Z" fill="#D9D9D9"/>
<path d="M42.6341 62.6C42.5021 62.6 42.3941 62.558 42.3101 62.474C42.2261 62.39 42.1841 62.282 42.1841 62.15V52.826H38.9801C38.8481 52.826 38.7401 52.784 38.6561 52.7C38.5721 52.604 38.5301 52.496 38.5301 52.376V50.45C38.5301 50.318 38.5721 50.21 38.6561 50.126C38.7401 50.042 38.8481 50 38.9801 50H48.6641C48.7961 50 48.9041 50.042 48.9881 50.126C49.0721 50.21 49.1141 50.318 49.1141 50.45V52.376C49.1141 52.496 49.0721 52.604 48.9881 52.7C48.9041 52.784 48.7961 52.826 48.6641 52.826H45.4601V62.15C45.4601 62.282 45.4181 62.39 45.3341 62.474C45.2501 62.558 45.1421 62.6 45.0101 62.6H42.6341Z" fill="#D9D9D9"/>
<path d="M51.2 62.6C51.08 62.6 50.972 62.558 50.876 62.474C50.792 62.39 50.75 62.282 50.75 62.15V50.45C50.75 50.318 50.792 50.21 50.876 50.126C50.972 50.042 51.08 50 51.2 50H53.144C53.336 50 53.48 50.054 53.576 50.162C53.684 50.258 53.75 50.336 53.774 50.396L56.942 56.084L60.11 50.396C60.146 50.336 60.206 50.258 60.29 50.162C60.386 50.054 60.536 50 60.74 50H62.666C62.798 50 62.906 50.042 62.99 50.126C63.086 50.21 63.134 50.318 63.134 50.45V62.15C63.134 62.282 63.086 62.39 62.99 62.474C62.906 62.558 62.798 62.6 62.666 62.6H60.524C60.392 62.6 60.278 62.558 60.182 62.474C60.098 62.39 60.056 62.282 60.056 62.15V55.4L58.022 59.162C57.974 59.27 57.902 59.366 57.806 59.45C57.71 59.534 57.578 59.576 57.41 59.576H56.474C56.306 59.576 56.174 59.534 56.078 59.45C55.982 59.366 55.904 59.27 55.844 59.162L53.81 55.4V62.15C53.81 62.282 53.768 62.39 53.684 62.474C53.6 62.558 53.492 62.6 53.36 62.6H51.2Z" fill="#D9D9D9"/>
<path d="M66.0887 62.6C65.9567 62.6 65.8487 62.558 65.7647 62.474C65.6807 62.39 65.6387 62.282 65.6387 62.15V50.45C65.6387 50.318 65.6807 50.21 65.7647 50.126C65.8487 50.042 65.9567 50 66.0887 50H68.4647C68.5847 50 68.6867 50.042 68.7707 50.126C68.8667 50.21 68.9147 50.318 68.9147 50.45V59.882H74.3507C74.4827 59.882 74.5907 59.93 74.6747 60.026C74.7707 60.11 74.8187 60.218 74.8187 60.35V62.15C74.8187 62.282 74.7707 62.39 74.6747 62.474C74.5907 62.558 74.4827 62.6 74.3507 62.6H66.0887Z" fill="#D9D9D9"/>
<path d="M61.5 9L80.1195 32.25H42.8805L61.5 9Z" fill="#E44D26"/>
</svg>
