<svg width="100" height="100" viewBox="0 0 100 100" fill="none" xmlns="http://www.w3.org/2000/svg">
<path d="M47 4H58L84 30V41M47 4L24.967 4.06771C20.0147 4.06771 16 8.13849 16 13.1599V86.9078C16 91.9292 20.0147 96 24.967 96H75.033C79.9853 96 84 91.9292 84 86.9078V41M47 4C51.9817 4 55.5297 8.10869 55.5297 13.1599V27.8085C55.5297 32.8597 55.7788 33.0617 60.7604 33.0617H75.033C81.2601 33.0617 84 35.9488 84 41" stroke="#E44D26" stroke-width="8" stroke-linecap="round" stroke-linejoin="round"/>
<path d="M25.71 67C25.578 67 25.47 66.958 25.386 66.874C25.302 66.79 25.26 66.682 25.26 66.55V54.85C25.26 54.718 25.302 54.61 25.386 54.526C25.47 54.442 25.578 54.4 25.71 54.4H28.032C28.164 54.4 28.272 54.442 28.356 54.526C28.44 54.61 28.482 54.718 28.482 54.85V59.188H32.928V54.85C32.928 54.718 32.97 54.61 33.054 54.526C33.138 54.442 33.246 54.4 33.378 54.4H35.7C35.832 54.4 35.94 54.442 36.024 54.526C36.108 54.61 36.15 54.718 36.15 54.85V66.55C36.15 66.682 36.108 66.79 36.024 66.874C35.94 66.958 35.832 67 35.7 67H33.378C33.246 67 33.138 66.958 33.054 66.874C32.97 66.79 32.928 66.682 32.928 66.55V62.068H28.482V66.55C28.482 66.682 28.44 66.79 28.356 66.874C28.272 66.958 28.164 67 28.032 67H25.71ZM41.8941 67C41.7621 67 41.6541 66.958 41.5701 66.874C41.4861 66.79 41.4441 66.682 41.4441 66.55V57.226H38.2401C38.1081 57.226 38.0001 57.184 37.9161 57.1C37.8321 57.004 37.7901 56.896 37.7901 56.776V54.85C37.7901 54.718 37.8321 54.61 37.9161 54.526C38.0001 54.442 38.1081 54.4 38.2401 54.4H47.9241C48.0561 54.4 48.1641 54.442 48.2481 54.526C48.3321 54.61 48.3741 54.718 48.3741 54.85V56.776C48.3741 56.896 48.3321 57.004 48.2481 57.1C48.1641 57.184 48.0561 57.226 47.9241 57.226H44.7201V66.55C44.7201 66.682 44.6781 66.79 44.5941 66.874C44.5101 66.958 44.4021 67 44.2701 67H41.8941ZM50.46 67C50.34 67 50.232 66.958 50.136 66.874C50.052 66.79 50.01 66.682 50.01 66.55V54.85C50.01 54.718 50.052 54.61 50.136 54.526C50.232 54.442 50.34 54.4 50.46 54.4H52.404C52.596 54.4 52.74 54.454 52.836 54.562C52.944 54.658 53.01 54.736 53.034 54.796L56.202 60.484L59.37 54.796C59.406 54.736 59.466 54.658 59.55 54.562C59.646 54.454 59.796 54.4 60 54.4H61.926C62.058 54.4 62.166 54.442 62.25 54.526C62.346 54.61 62.394 54.718 62.394 54.85V66.55C62.394 66.682 62.346 66.79 62.25 66.874C62.166 66.958 62.058 67 61.926 67H59.784C59.652 67 59.538 66.958 59.442 66.874C59.358 66.79 59.316 66.682 59.316 66.55V59.8L57.282 63.562C57.234 63.67 57.162 63.766 57.066 63.85C56.97 63.934 56.838 63.976 56.67 63.976H55.734C55.566 63.976 55.434 63.934 55.338 63.85C55.242 63.766 55.164 63.67 55.104 63.562L53.07 59.8V66.55C53.07 66.682 53.028 66.79 52.944 66.874C52.86 66.958 52.752 67 52.62 67H50.46ZM65.3487 67C65.2167 67 65.1087 66.958 65.0247 66.874C64.9407 66.79 64.8987 66.682 64.8987 66.55V54.85C64.8987 54.718 64.9407 54.61 65.0247 54.526C65.1087 54.442 65.2167 54.4 65.3487 54.4H67.7247C67.8447 54.4 67.9467 54.442 68.0307 54.526C68.1267 54.61 68.1747 54.718 68.1747 54.85V64.282H73.6107C73.7427 64.282 73.8507 64.33 73.9347 64.426C74.0307 64.51 74.0787 64.618 74.0787 64.75V66.55C74.0787 66.682 74.0307 66.79 73.9347 66.874C73.8507 66.958 73.7427 67 73.6107 67H65.3487Z" fill="#E44D26"/>
</svg>
