<svg width="100" height="100" viewBox="0 0 100 100" fill="none" xmlns="http://www.w3.org/2000/svg">
<g clip-path="url(#clip0_116_2)">
<path d="M47 4H58L84 30V41M47 4L24.967 4.06771C20.0147 4.06771 16 8.13849 16 13.1599V86.9078C16 91.9292 20.0147 96 24.967 96H75.033C79.9853 96 84 91.9292 84 86.9078V41M47 4C51.9817 4 55.5297 8.10869 55.5297 13.1599V27.8085C55.5297 32.8597 55.7788 33.0617 60.7604 33.0617H75.033C81.2601 33.0617 84 35.9488 84 41" stroke="#AAAAAA" stroke-width="8" stroke-linecap="round" stroke-linejoin="round"/>
<rect y="44" width="100" height="32" rx="4" fill="#AAAAAA"/>
<path d="M30.165 71C29.9303 71 29.7383 70.9253 29.589 70.776C29.4397 70.6267 29.365 70.4347 29.365 70.2V49.4C29.365 49.1653 29.4397 48.9733 29.589 48.824C29.7383 48.6747 29.9303 48.6 30.165 48.6H34.453C34.6877 48.6 34.8797 48.6747 35.029 48.824C35.1783 48.9733 35.253 49.1653 35.253 49.4V70.2C35.253 70.4347 35.1783 70.6267 35.029 70.776C34.8797 70.9253 34.6877 71 34.453 71H30.165ZM40.54 71C40.3053 71 40.1133 70.9253 39.964 70.776C39.8147 70.6267 39.74 70.4347 39.74 70.2V49.4C39.74 49.1653 39.8147 48.9733 39.964 48.824C40.1133 48.6747 40.3053 48.6 40.54 48.6H43.932C44.2947 48.6 44.5507 48.6853 44.7 48.856C44.8707 49.0053 44.9773 49.1227 45.02 49.208L52.828 61.528V49.4C52.828 49.1653 52.9027 48.9733 53.052 48.824C53.2013 48.6747 53.3933 48.6 53.628 48.6H57.468C57.7027 48.6 57.8947 48.6747 58.044 48.824C58.1933 48.9733 58.268 49.1653 58.268 49.4V70.2C58.268 70.4133 58.1933 70.6053 58.044 70.776C57.8947 70.9253 57.7027 71 57.468 71H54.044C53.7027 71 53.4467 70.9147 53.276 70.744C53.1267 70.5733 53.0307 70.456 52.988 70.392L45.18 58.552V70.2C45.18 70.4347 45.1053 70.6267 44.956 70.776C44.8067 70.9253 44.6147 71 44.38 71H40.54ZM63.54 71C63.3053 71 63.1133 70.9253 62.964 70.776C62.8147 70.6267 62.74 70.4347 62.74 70.2V49.4C62.74 49.1653 62.8147 48.9733 62.964 48.824C63.1133 48.6747 63.3053 48.6 63.54 48.6H67.828C68.0627 48.6 68.2547 48.6747 68.404 48.824C68.5533 48.9733 68.628 49.1653 68.628 49.4V70.2C68.628 70.4347 68.5533 70.6267 68.404 70.776C68.2547 70.9253 68.0627 71 67.828 71H63.54Z" fill="white"/>
</g>
<defs>
<clipPath id="clip0_116_2">
<rect width="100" height="100" fill="white"/>
</clipPath>
</defs>
</svg>
