<svg width="100" height="100" viewBox="0 0 100 100" fill="none" xmlns="http://www.w3.org/2000/svg">
<g clip-path="url(#clip0_112_12)">
<path d="M47 4H58L84 30V41M47 4L24.967 4.06771C20.0147 4.06771 16 8.13849 16 13.1599V86.9078C16 91.9292 20.0147 96 24.967 96H75.033C79.9853 96 84 91.9292 84 86.9078V41M47 4C51.9817 4 55.5297 8.10869 55.5297 13.1599V27.8085C55.5297 32.8597 55.7788 33.0617 60.7604 33.0617H75.033C81.2601 33.0617 84 35.9488 84 41" stroke="#22A5AA" stroke-width="8" stroke-linecap="round" stroke-linejoin="round"/>
<rect y="44" width="100" height="32" rx="4" fill="#22A5AA"/>
<path d="M24.4619 71C24.2272 71 24.0352 70.9253 23.8859 70.776C23.7365 70.6267 23.6619 70.4347 23.6619 70.2V49.4C23.6619 49.1653 23.7365 48.9733 23.8859 48.824C24.0352 48.6747 24.2272 48.6 24.4619 48.6H28.7499C28.9845 48.6 29.1765 48.6747 29.3259 48.824C29.4752 48.9733 29.5499 49.1653 29.5499 49.4V70.2C29.5499 70.4347 29.4752 70.6267 29.3259 70.776C29.1765 70.9253 28.9845 71 28.7499 71H24.4619ZM34.8369 71C34.6022 71 34.4102 70.9253 34.2609 70.776C34.1115 70.6267 34.0369 70.4347 34.0369 70.2V49.4C34.0369 49.1653 34.1115 48.9733 34.2609 48.824C34.4102 48.6747 34.6022 48.6 34.8369 48.6H38.2289C38.5915 48.6 38.8475 48.6853 38.9969 48.856C39.1675 49.0053 39.2742 49.1227 39.3169 49.208L47.1249 61.528V49.4C47.1249 49.1653 47.1995 48.9733 47.3489 48.824C47.4982 48.6747 47.6902 48.6 47.9249 48.6H51.7649C51.9995 48.6 52.1915 48.6747 52.3409 48.824C52.4902 48.9733 52.5649 49.1653 52.5649 49.4V70.2C52.5649 70.4133 52.4902 70.6053 52.3409 70.776C52.1915 70.9253 51.9995 71 51.7649 71H48.3409C47.9995 71 47.7435 70.9147 47.5729 70.744C47.4235 70.5733 47.3275 70.456 47.2849 70.392L39.4769 58.552V70.2C39.4769 70.4347 39.4022 70.6267 39.2529 70.776C39.1035 70.9253 38.9115 71 38.6769 71H34.8369ZM66.1889 71.32C64.2262 71.32 62.5195 71 61.0689 70.36C59.6182 69.72 58.4875 68.76 57.6769 67.48C56.8662 66.1787 56.4182 64.5573 56.3329 62.616C56.3115 61.6987 56.3009 60.7813 56.3009 59.864C56.3009 58.9467 56.3115 58.0187 56.3329 57.08C56.4182 55.16 56.8662 53.5493 57.6769 52.248C58.5089 50.9253 59.6502 49.9333 61.1009 49.272C62.5515 48.6107 64.2475 48.28 66.1889 48.28C68.1089 48.28 69.7942 48.6107 71.2449 49.272C72.7169 49.9333 73.8689 50.9253 74.7009 52.248C75.5329 53.5493 75.9809 55.16 76.0449 57.08C76.0875 58.0187 76.1089 58.9467 76.1089 59.864C76.1089 60.7813 76.0875 61.6987 76.0449 62.616C75.9595 64.5573 75.5115 66.1787 74.7009 67.48C73.8902 68.76 72.7595 69.72 71.3089 70.36C69.8582 71 68.1515 71.32 66.1889 71.32ZM66.1889 66.712C67.3195 66.712 68.2369 66.3707 68.9409 65.688C69.6662 65.0053 70.0502 63.9173 70.0929 62.424C70.1355 61.4853 70.1569 60.6 70.1569 59.768C70.1569 58.936 70.1355 58.072 70.0929 57.176C70.0502 56.1733 69.8582 55.3627 69.5169 54.744C69.1969 54.104 68.7489 53.6347 68.1729 53.336C67.5969 53.0373 66.9355 52.888 66.1889 52.888C65.4635 52.888 64.8129 53.0373 64.2369 53.336C63.6609 53.6347 63.2022 54.104 62.8609 54.744C62.5195 55.3627 62.3275 56.1733 62.2849 57.176C62.2635 58.072 62.2529 58.936 62.2529 59.768C62.2529 60.6 62.2635 61.4853 62.2849 62.424C62.3489 63.9173 62.7329 65.0053 63.4369 65.688C64.1409 66.3707 65.0582 66.712 66.1889 66.712Z" fill="white"/>
</g>
<defs>
<clipPath id="clip0_112_12">
<rect width="100" height="100" fill="white"/>
</clipPath>
</defs>
</svg>
