<svg width="100" height="100" viewBox="0 0 100 100" fill="none" xmlns="http://www.w3.org/2000/svg">
<g clip-path="url(#clip0_111_30)">
<path d="M47 4H58L84 30V41M47 4L24.967 4.06771C20.0147 4.06771 16 8.13849 16 13.1599V86.9078C16 91.9292 20.0147 96 24.967 96H75.033C79.9853 96 84 91.9292 84 86.9078V41M47 4C51.9817 4 55.5297 8.10869 55.5297 13.1599V27.8085C55.5297 32.8597 55.7788 33.0617 60.7604 33.0617H75.033C81.2601 33.0617 84 35.9488 84 41" stroke="#F28F23" stroke-width="8" stroke-linecap="round" stroke-linejoin="round"/>
<rect y="44" width="100" height="32" rx="4" fill="#F28F23"/>
<path d="M25.9996 71.32C24.7836 71.32 23.621 71.1707 22.5116 70.872C21.4236 70.552 20.453 70.0827 19.5996 69.464C18.7463 68.8453 18.0636 68.0773 17.5516 67.16C17.061 66.2427 16.7943 65.176 16.7516 63.96C16.7516 63.768 16.8156 63.608 16.9436 63.48C17.0716 63.3307 17.2423 63.256 17.4556 63.256H21.7756C22.0743 63.256 22.2983 63.3307 22.4476 63.48C22.6183 63.6293 22.757 63.8533 22.8636 64.152C22.9703 64.7493 23.173 65.24 23.4716 65.624C23.7703 65.9867 24.1436 66.264 24.5916 66.456C25.061 66.6267 25.5836 66.712 26.1596 66.712C27.2263 66.712 28.0476 66.3707 28.6236 65.688C29.1996 64.984 29.4876 63.96 29.4876 62.616V53.368H19.1196C18.9063 53.368 18.7143 53.2933 18.5436 53.144C18.3943 52.9947 18.3196 52.8027 18.3196 52.568V49.4C18.3196 49.1653 18.3943 48.9733 18.5436 48.824C18.7143 48.6747 18.9063 48.6 19.1196 48.6H34.6076C34.8423 48.6 35.0343 48.6747 35.1836 48.824C35.3543 48.9733 35.4396 49.1653 35.4396 49.4V62.776C35.4396 64.632 35.0343 66.2 34.2236 67.48C33.413 68.7387 32.3036 69.6987 30.8956 70.36C29.4876 71 27.8556 71.32 25.9996 71.32ZM37.9131 71C37.7425 71 37.5825 70.936 37.4331 70.808C37.3051 70.6587 37.2411 70.4987 37.2411 70.328C37.2411 70.2213 37.2518 70.1253 37.2731 70.04L44.7931 49.496C44.8571 49.2613 44.9851 49.0587 45.1771 48.888C45.3905 48.696 45.6785 48.6 46.0411 48.6H50.7771C51.1398 48.6 51.4171 48.696 51.6091 48.888C51.8225 49.0587 51.9611 49.2613 52.0251 49.496L59.5131 70.04C59.5558 70.1253 59.5771 70.2213 59.5771 70.328C59.5771 70.4987 59.5025 70.6587 59.3531 70.808C59.2251 70.936 59.0651 71 58.8731 71H54.9371C54.6171 71 54.3718 70.9253 54.2011 70.776C54.0518 70.6053 53.9558 70.456 53.9131 70.328L52.6651 67.064H44.1211L42.9051 70.328C42.8625 70.456 42.7665 70.6053 42.6171 70.776C42.4678 70.9253 42.2118 71 41.8491 71H37.9131ZM45.4331 62.456H51.3851L48.3771 54.008L45.4331 62.456ZM62.8994 71C62.6647 71 62.4727 70.9253 62.3234 70.776C62.174 70.6267 62.0994 70.4347 62.0994 70.2V49.4C62.0994 49.1653 62.174 48.9733 62.3234 48.824C62.4727 48.6747 62.6647 48.6 62.8994 48.6H71.6034C74.3554 48.6 76.5207 49.24 78.0994 50.52C79.6994 51.7787 80.4994 53.5707 80.4994 55.896C80.4994 57.4107 80.126 58.6907 79.3794 59.736C78.654 60.7813 77.694 61.5707 76.4994 62.104L80.9154 69.976C80.9794 70.104 81.0114 70.2213 81.0114 70.328C81.0114 70.4987 80.9367 70.6587 80.7874 70.808C80.6594 70.936 80.4994 71 80.3074 71H76.0834C75.678 71 75.3794 70.904 75.1874 70.712C74.9954 70.4987 74.8567 70.3067 74.7714 70.136L71.1234 63.096H67.8274V70.2C67.8274 70.4347 67.7527 70.6267 67.6034 70.776C67.454 70.9253 67.262 71 67.0274 71H62.8994ZM67.8274 58.584H71.5394C72.542 58.584 73.2887 58.3387 73.7794 57.848C74.2914 57.3573 74.5474 56.6853 74.5474 55.832C74.5474 55 74.302 54.328 73.8114 53.816C73.342 53.304 72.5847 53.048 71.5394 53.048H67.8274V58.584Z" fill="white"/>
</g>
<defs>
<clipPath id="clip0_111_30">
<rect width="100" height="100" fill="white"/>
</clipPath>
</defs>
</svg>
