<svg width="100" height="100" viewBox="0 0 100 100" fill="none" xmlns="http://www.w3.org/2000/svg">
<g clip-path="url(#clip0_109_23)">
<path d="M47 4H58L84 30V41M47 4L24.967 4.06771C20.0147 4.06771 16 8.13849 16 13.1599V86.9078C16 91.9292 20.0147 96 24.967 96H75.033C79.9853 96 84 91.9292 84 86.9078V41M47 4C51.9817 4 55.5297 8.10869 55.5297 13.1599V27.8085C55.5297 32.8597 55.7788 33.0617 60.7604 33.0617H75.033C81.2601 33.0617 84 35.9488 84 41" stroke="#FFCA28" stroke-width="8" stroke-linecap="round" stroke-linejoin="round"/>
<rect y="44" width="100" height="32" rx="4" fill="#FFCA28"/>
<path d="M37.984 71.32C36.768 71.32 35.6053 71.1707 34.496 70.872C33.408 70.552 32.4373 70.0827 31.584 69.464C30.7307 68.8453 30.048 68.0773 29.536 67.16C29.0453 66.2427 28.7787 65.176 28.736 63.96C28.736 63.768 28.8 63.608 28.928 63.48C29.056 63.3307 29.2267 63.256 29.44 63.256H33.76C34.0587 63.256 34.2827 63.3307 34.432 63.48C34.6027 63.6293 34.7413 63.8533 34.848 64.152C34.9547 64.7493 35.1573 65.24 35.456 65.624C35.7547 65.9867 36.128 66.264 36.576 66.456C37.0453 66.6267 37.568 66.712 38.144 66.712C39.2107 66.712 40.032 66.3707 40.608 65.688C41.184 64.984 41.472 63.96 41.472 62.616V53.368H31.104C30.8907 53.368 30.6987 53.2933 30.528 53.144C30.3787 52.9947 30.304 52.8027 30.304 52.568V49.4C30.304 49.1653 30.3787 48.9733 30.528 48.824C30.6987 48.6747 30.8907 48.6 31.104 48.6H46.592C46.8267 48.6 47.0187 48.6747 47.168 48.824C47.3387 48.9733 47.424 49.1653 47.424 49.4V62.776C47.424 64.632 47.0187 66.2 46.208 67.48C45.3973 68.7387 44.288 69.6987 42.88 70.36C41.472 71 39.84 71.32 37.984 71.32ZM60.0295 71.32C57.8962 71.32 56.1255 71.0213 54.7175 70.424C53.3095 69.8053 52.2428 69.0053 51.5175 68.024C50.7922 67.0427 50.4082 65.9973 50.3655 64.888C50.3655 64.7173 50.4295 64.568 50.5575 64.44C50.7068 64.2907 50.8775 64.216 51.0695 64.216H55.1015C55.4002 64.216 55.6242 64.2693 55.7735 64.376C55.9442 64.4827 56.0935 64.6213 56.2215 64.792C56.3922 65.112 56.6268 65.4213 56.9255 65.72C57.2455 66.0187 57.6508 66.264 58.1415 66.456C58.6535 66.6267 59.2828 66.712 60.0295 66.712C61.2668 66.712 62.1948 66.52 62.8135 66.136C63.4535 65.752 63.7735 65.2293 63.7735 64.568C63.7735 64.0987 63.6028 63.7147 63.2615 63.416C62.9202 63.096 62.3655 62.8187 61.5975 62.584C60.8508 62.328 59.8482 62.072 58.5895 61.816C56.9682 61.4747 55.5815 61.0373 54.4295 60.504C53.2988 59.9493 52.4348 59.2347 51.8375 58.36C51.2402 57.464 50.9415 56.3547 50.9415 55.032C50.9415 53.7307 51.3042 52.568 52.0295 51.544C52.7762 50.52 53.8108 49.72 55.1335 49.144C56.4562 48.568 58.0242 48.28 59.8375 48.28C61.3095 48.28 62.6002 48.472 63.7095 48.856C64.8402 49.24 65.7895 49.752 66.5575 50.392C67.3255 51.032 67.9015 51.7147 68.2855 52.44C68.6908 53.144 68.9042 53.8373 68.9255 54.52C68.9255 54.6907 68.8615 54.8507 68.7335 55C68.6055 55.128 68.4455 55.192 68.2535 55.192H64.0295C63.7948 55.192 63.5922 55.1493 63.4215 55.064C63.2508 54.9787 63.1015 54.84 62.9735 54.648C62.8455 54.1787 62.5042 53.7733 61.9495 53.432C61.4162 53.0693 60.7122 52.888 59.8375 52.888C58.8988 52.888 58.1628 53.0587 57.6295 53.4C57.1175 53.72 56.8615 54.2213 56.8615 54.904C56.8615 55.3307 57.0002 55.704 57.2775 56.024C57.5762 56.344 58.0562 56.6213 58.7175 56.856C59.4002 57.0907 60.3282 57.336 61.5015 57.592C63.4428 57.9547 65.0108 58.4133 66.2055 58.968C67.4002 59.5013 68.2748 60.2053 68.8295 61.08C69.3842 61.9333 69.6615 63.0107 69.6615 64.312C69.6615 65.7627 69.2455 67.0213 68.4135 68.088C67.6028 69.1333 66.4722 69.9333 65.0215 70.488C63.5708 71.0427 61.9068 71.32 60.0295 71.32Z" fill="white"/>
</g>
<defs>
<clipPath id="clip0_109_23">
<rect width="100" height="100" fill="white"/>
</clipPath>
</defs>
</svg>
