<svg width="100" height="104" viewBox="0 0 100 104" fill="none" xmlns="http://www.w3.org/2000/svg">
<g clip-path="url(#clip0_109_38)">
<path d="M47 4.16H58L84 31.2V42.64M47 4.16L24.967 4.23042C20.0147 4.23042 16 8.46404 16 13.6863V90.3841C16 95.6064 20.0147 99.84 24.967 99.84H75.033C79.9853 99.84 84 95.6064 84 90.3841V42.64M47 4.16C51.9817 4.16 55.5297 8.43304 55.5297 13.6863V28.9208C55.5297 34.1741 55.7788 34.3842 60.7604 34.3842H75.033C81.2601 34.3842 84 37.3867 84 42.64" stroke="#6E6E6E" stroke-width="8" stroke-linecap="round" stroke-linejoin="round"/>
<rect y="45.76" width="100" height="33.28" rx="4" fill="#6E6E6E"/>
<path d="M14.984 73.32C13.768 73.32 12.6053 73.1707 11.496 72.872C10.408 72.552 9.43733 72.0827 8.584 71.464C7.73067 70.8453 7.048 70.0773 6.536 69.16C6.04533 68.2427 5.77867 67.176 5.736 65.96C5.736 65.768 5.8 65.608 5.928 65.48C6.056 65.3307 6.22667 65.256 6.44 65.256H10.76C11.0587 65.256 11.2827 65.3307 11.432 65.48C11.6027 65.6293 11.7413 65.8533 11.848 66.152C11.9547 66.7493 12.1573 67.24 12.456 67.624C12.7547 67.9867 13.128 68.264 13.576 68.456C14.0453 68.6267 14.568 68.712 15.144 68.712C16.2107 68.712 17.032 68.3707 17.608 67.688C18.184 66.984 18.472 65.96 18.472 64.616V55.368H8.104C7.89067 55.368 7.69867 55.2933 7.528 55.144C7.37867 54.9947 7.304 54.8027 7.304 54.568V51.4C7.304 51.1653 7.37867 50.9733 7.528 50.824C7.69867 50.6747 7.89067 50.6 8.104 50.6H23.592C23.8267 50.6 24.0187 50.6747 24.168 50.824C24.3387 50.9733 24.424 51.1653 24.424 51.4V64.776C24.424 66.632 24.0187 68.2 23.208 69.48C22.3973 70.7387 21.288 71.6987 19.88 72.36C18.472 73 16.84 73.32 14.984 73.32ZM37.0295 73.32C34.8962 73.32 33.1255 73.0213 31.7175 72.424C30.3095 71.8053 29.2428 71.0053 28.5175 70.024C27.7922 69.0427 27.4082 67.9973 27.3655 66.888C27.3655 66.7173 27.4295 66.568 27.5575 66.44C27.7068 66.2907 27.8775 66.216 28.0695 66.216H32.1015C32.4002 66.216 32.6242 66.2693 32.7735 66.376C32.9442 66.4827 33.0935 66.6213 33.2215 66.792C33.3922 67.112 33.6268 67.4213 33.9255 67.72C34.2455 68.0187 34.6508 68.264 35.1415 68.456C35.6535 68.6267 36.2828 68.712 37.0295 68.712C38.2668 68.712 39.1948 68.52 39.8135 68.136C40.4535 67.752 40.7735 67.2293 40.7735 66.568C40.7735 66.0987 40.6028 65.7147 40.2615 65.416C39.9202 65.096 39.3655 64.8187 38.5975 64.584C37.8508 64.328 36.8482 64.072 35.5895 63.816C33.9682 63.4747 32.5815 63.0373 31.4295 62.504C30.2988 61.9493 29.4348 61.2347 28.8375 60.36C28.2402 59.464 27.9415 58.3547 27.9415 57.032C27.9415 55.7307 28.3042 54.568 29.0295 53.544C29.7762 52.52 30.8108 51.72 32.1335 51.144C33.4562 50.568 35.0242 50.28 36.8375 50.28C38.3095 50.28 39.6002 50.472 40.7095 50.856C41.8402 51.24 42.7895 51.752 43.5575 52.392C44.3255 53.032 44.9015 53.7147 45.2855 54.44C45.6908 55.144 45.9042 55.8373 45.9255 56.52C45.9255 56.6907 45.8615 56.8507 45.7335 57C45.6055 57.128 45.4455 57.192 45.2535 57.192H41.0295C40.7948 57.192 40.5922 57.1493 40.4215 57.064C40.2508 56.9787 40.1015 56.84 39.9735 56.648C39.8455 56.1787 39.5042 55.7733 38.9495 55.432C38.4162 55.0693 37.7122 54.888 36.8375 54.888C35.8988 54.888 35.1628 55.0587 34.6295 55.4C34.1175 55.72 33.8615 56.2213 33.8615 56.904C33.8615 57.3307 34.0002 57.704 34.2775 58.024C34.5762 58.344 35.0562 58.6213 35.7175 58.856C36.4002 59.0907 37.3282 59.336 38.5015 59.592C40.4428 59.9547 42.0108 60.4133 43.2055 60.968C44.4002 61.5013 45.2748 62.2053 45.8295 63.08C46.3842 63.9333 46.6615 65.0107 46.6615 66.312C46.6615 67.7627 46.2455 69.0213 45.4135 70.088C44.6028 71.1333 43.4722 71.9333 42.0215 72.488C40.5708 73.0427 38.9068 73.32 37.0295 73.32ZM59.017 73.32C57.0543 73.32 55.3477 73 53.897 72.36C52.4463 71.72 51.3157 70.76 50.505 69.48C49.6943 68.1787 49.2463 66.5573 49.161 64.616C49.1397 63.6987 49.129 62.7813 49.129 61.864C49.129 60.9467 49.1397 60.0187 49.161 59.08C49.2463 57.16 49.6943 55.5493 50.505 54.248C51.337 52.9253 52.4783 51.9333 53.929 51.272C55.3797 50.6107 57.0757 50.28 59.017 50.28C60.937 50.28 62.6223 50.6107 64.073 51.272C65.545 51.9333 66.697 52.9253 67.529 54.248C68.361 55.5493 68.809 57.16 68.873 59.08C68.9157 60.0187 68.937 60.9467 68.937 61.864C68.937 62.7813 68.9157 63.6987 68.873 64.616C68.7877 66.5573 68.3397 68.1787 67.529 69.48C66.7183 70.76 65.5877 71.72 64.137 72.36C62.6863 73 60.9797 73.32 59.017 73.32ZM59.017 68.712C60.1477 68.712 61.065 68.3707 61.769 67.688C62.4943 67.0053 62.8783 65.9173 62.921 64.424C62.9637 63.4853 62.985 62.6 62.985 61.768C62.985 60.936 62.9637 60.072 62.921 59.176C62.8783 58.1733 62.6863 57.3627 62.345 56.744C62.025 56.104 61.577 55.6347 61.001 55.336C60.425 55.0373 59.7637 54.888 59.017 54.888C58.2917 54.888 57.641 55.0373 57.065 55.336C56.489 55.6347 56.0303 56.104 55.689 56.744C55.3477 57.3627 55.1557 58.1733 55.113 59.176C55.0917 60.072 55.081 60.936 55.081 61.768C55.081 62.6 55.0917 63.4853 55.113 64.424C55.177 65.9173 55.561 67.0053 56.265 67.688C56.969 68.3707 57.8863 68.712 59.017 68.712ZM73.4463 73C73.2116 73 73.0196 72.9253 72.8703 72.776C72.7209 72.6267 72.6463 72.4347 72.6463 72.2V51.4C72.6463 51.1653 72.7209 50.9733 72.8703 50.824C73.0196 50.6747 73.2116 50.6 73.4463 50.6H76.8383C77.2009 50.6 77.4569 50.6853 77.6063 50.856C77.7769 51.0053 77.8836 51.1227 77.9263 51.208L85.7343 63.528V51.4C85.7343 51.1653 85.8089 50.9733 85.9583 50.824C86.1076 50.6747 86.2996 50.6 86.5343 50.6H90.3743C90.6089 50.6 90.8009 50.6747 90.9503 50.824C91.0996 50.9733 91.1743 51.1653 91.1743 51.4V72.2C91.1743 72.4133 91.0996 72.6053 90.9503 72.776C90.8009 72.9253 90.6089 73 90.3743 73H86.9503C86.6089 73 86.3529 72.9147 86.1823 72.744C86.0329 72.5733 85.9369 72.456 85.8943 72.392L78.0863 60.552V72.2C78.0863 72.4347 78.0116 72.6267 77.8623 72.776C77.7129 72.9253 77.5209 73 77.2863 73H73.4463Z" fill="white"/>
</g>
<defs>
<clipPath id="clip0_109_38">
<rect width="100" height="104" fill="white"/>
</clipPath>
</defs>
</svg>
