<svg width="100" height="100" viewBox="0 0 100 100" fill="none" xmlns="http://www.w3.org/2000/svg">
<g clip-path="url(#clip0_109_34)">
<path d="M47 4H58L84 30V41M47 4L24.967 4.06771C20.0147 4.06771 16 8.13849 16 13.1599V86.9078C16 91.9292 20.0147 96 24.967 96H75.033C79.9853 96 84 91.9292 84 86.9078V41M47 4C51.9817 4 55.5297 8.10869 55.5297 13.1599V27.8085C55.5297 32.8597 55.7788 33.0617 60.7604 33.0617H75.033C81.2601 33.0617 84 35.9488 84 41" stroke="#42A5F5" stroke-width="8" stroke-linecap="round" stroke-linejoin="round"/>
<rect y="44" width="100" height="32" rx="4" fill="#42A5F5"/>
<path d="M28.04 71C27.8267 71 27.6347 70.9253 27.464 70.776C27.3147 70.6267 27.24 70.4347 27.24 70.2V49.4C27.24 49.1653 27.3147 48.9733 27.464 48.824C27.6347 48.6747 27.8267 48.6 28.04 48.6H31.496C31.8373 48.6 32.0933 48.696 32.264 48.888C32.456 49.0587 32.5733 49.1973 32.616 49.304L38.248 59.416L43.88 49.304C43.944 49.1973 44.0507 49.0587 44.2 48.888C44.3707 48.696 44.6373 48.6 45 48.6H48.424C48.6587 48.6 48.8507 48.6747 49 48.824C49.1707 48.9733 49.256 49.1653 49.256 49.4V70.2C49.256 70.4347 49.1707 70.6267 49 70.776C48.8507 70.9253 48.6587 71 48.424 71H44.616C44.3813 71 44.1787 70.9253 44.008 70.776C43.8587 70.6267 43.784 70.4347 43.784 70.2V58.2L40.168 64.888C40.0827 65.08 39.9547 65.2507 39.784 65.4C39.6133 65.5493 39.3787 65.624 39.08 65.624H37.416C37.1173 65.624 36.8827 65.5493 36.712 65.4C36.5413 65.2507 36.4027 65.08 36.296 64.888L32.68 58.2V70.2C32.68 70.4347 32.6053 70.6267 32.456 70.776C32.3067 70.9253 32.1147 71 31.88 71H28.04ZM54.5088 71C54.2741 71 54.0821 70.9253 53.9328 70.776C53.7834 70.6267 53.7088 70.4347 53.7088 70.2V49.4C53.7088 49.1653 53.7834 48.9733 53.9328 48.824C54.0821 48.6747 54.2741 48.6 54.5088 48.6H62.8288C64.9194 48.6 66.7008 48.9413 68.1728 49.624C69.6448 50.2853 70.7754 51.2667 71.5648 52.568C72.3541 53.848 72.7808 55.4373 72.8448 57.336C72.8661 58.2747 72.8768 59.096 72.8768 59.8C72.8768 60.504 72.8661 61.3147 72.8448 62.232C72.7594 64.216 72.3328 65.8587 71.5648 67.16C70.8181 68.4613 69.7194 69.432 68.2688 70.072C66.8394 70.6907 65.0794 71 62.9888 71H54.5088ZM59.4368 66.392H62.8288C63.7461 66.392 64.5034 66.2533 65.1008 65.976C65.7194 65.6773 66.1781 65.2187 66.4768 64.6C66.7968 63.9813 66.9674 63.1707 66.9888 62.168C67.0314 61.5493 67.0528 60.9947 67.0528 60.504C67.0741 60.0133 67.0741 59.5227 67.0528 59.032C67.0528 58.5413 67.0314 57.9973 66.9888 57.4C66.9461 55.9493 66.5621 54.8933 65.8368 54.232C65.1328 53.5493 64.0768 53.208 62.6688 53.208H59.4368V66.392Z" fill="white"/>
</g>
<defs>
<clipPath id="clip0_109_34">
<rect width="100" height="100" fill="white"/>
</clipPath>
</defs>
</svg>
