<svg width="100" height="104" viewBox="0 0 100 104" fill="none" xmlns="http://www.w3.org/2000/svg">
<g clip-path="url(#clip0_112_51)">
<path d="M47 4.16H58L84 31.2V42.64M47 4.16L24.967 4.23042C20.0147 4.23042 16 8.46404 16 13.6863V90.3841C16 95.6064 20.0147 99.84 24.967 99.84H75.033C79.9853 99.84 84 95.6064 84 90.3841V42.64M47 4.16C51.9817 4.16 55.5297 8.43304 55.5297 13.6863V28.9208C55.5297 34.1741 55.7788 34.3842 60.7604 34.3842H75.033C81.2601 34.3842 84 37.3867 84 42.64" stroke="#2194CB" stroke-width="8" stroke-linecap="round" stroke-linejoin="round"/>
<rect y="45.76" width="100" height="33.28" rx="4" fill="#2194CB"/>
<path d="M23.5244 73C23.311 73 23.119 72.9253 22.9484 72.776C22.799 72.6267 22.7244 72.4347 22.7244 72.2V51.4C22.7244 51.1653 22.799 50.9733 22.9484 50.824C23.119 50.6747 23.311 50.6 23.5244 50.6H26.9804C27.3217 50.6 27.5777 50.696 27.7484 50.888C27.9404 51.0587 28.0577 51.1973 28.1004 51.304L33.7324 61.416L39.3644 51.304C39.4284 51.1973 39.535 51.0587 39.6844 50.888C39.855 50.696 40.1217 50.6 40.4844 50.6H43.9084C44.143 50.6 44.335 50.6747 44.4844 50.824C44.655 50.9733 44.7404 51.1653 44.7404 51.4V72.2C44.7404 72.4347 44.655 72.6267 44.4844 72.776C44.335 72.9253 44.143 73 43.9084 73H40.1004C39.8657 73 39.663 72.9253 39.4924 72.776C39.343 72.6267 39.2684 72.4347 39.2684 72.2V60.2L35.6524 66.888C35.567 67.08 35.439 67.2507 35.2684 67.4C35.0977 67.5493 34.863 67.624 34.5644 67.624H32.9004C32.6017 67.624 32.367 67.5493 32.1964 67.4C32.0257 67.2507 31.887 67.08 31.7804 66.888L28.1644 60.2V72.2C28.1644 72.4347 28.0897 72.6267 27.9404 72.776C27.791 72.9253 27.599 73 27.3644 73H23.5244ZM57.5451 73.32C55.4118 73.32 53.6411 73.0213 52.2331 72.424C50.8251 71.8053 49.7585 71.0053 49.0331 70.024C48.3078 69.0427 47.9238 67.9973 47.8811 66.888C47.8811 66.7173 47.9451 66.568 48.0731 66.44C48.2225 66.2907 48.3931 66.216 48.5851 66.216H52.6171C52.9158 66.216 53.1398 66.2693 53.2891 66.376C53.4598 66.4827 53.6091 66.6213 53.7371 66.792C53.9078 67.112 54.1425 67.4213 54.4411 67.72C54.7611 68.0187 55.1665 68.264 55.6571 68.456C56.1691 68.6267 56.7985 68.712 57.5451 68.712C58.7825 68.712 59.7105 68.52 60.3291 68.136C60.9691 67.752 61.2891 67.2293 61.2891 66.568C61.2891 66.0987 61.1185 65.7147 60.7771 65.416C60.4358 65.096 59.8811 64.8187 59.1131 64.584C58.3665 64.328 57.3638 64.072 56.1051 63.816C54.4838 63.4747 53.0971 63.0373 51.9451 62.504C50.8145 61.9493 49.9505 61.2347 49.3531 60.36C48.7558 59.464 48.4571 58.3547 48.4571 57.032C48.4571 55.7307 48.8198 54.568 49.5451 53.544C50.2918 52.52 51.3265 51.72 52.6491 51.144C53.9718 50.568 55.5398 50.28 57.3531 50.28C58.8251 50.28 60.1158 50.472 61.2251 50.856C62.3558 51.24 63.3051 51.752 64.0731 52.392C64.8411 53.032 65.4171 53.7147 65.8011 54.44C66.2065 55.144 66.4198 55.8373 66.4411 56.52C66.4411 56.6907 66.3771 56.8507 66.2491 57C66.1211 57.128 65.9611 57.192 65.7691 57.192H61.5451C61.3105 57.192 61.1078 57.1493 60.9371 57.064C60.7665 56.9787 60.6171 56.84 60.4891 56.648C60.3611 56.1787 60.0198 55.7733 59.4651 55.432C58.9318 55.0693 58.2278 54.888 57.3531 54.888C56.4145 54.888 55.6785 55.0587 55.1451 55.4C54.6331 55.72 54.3771 56.2213 54.3771 56.904C54.3771 57.3307 54.5158 57.704 54.7931 58.024C55.0918 58.344 55.5718 58.6213 56.2331 58.856C56.9158 59.0907 57.8438 59.336 59.0171 59.592C60.9585 59.9547 62.5265 60.4133 63.7211 60.968C64.9158 61.5013 65.7905 62.2053 66.3451 63.08C66.8998 63.9333 67.1771 65.0107 67.1771 66.312C67.1771 67.7627 66.7611 69.0213 65.9291 70.088C65.1185 71.1333 63.9878 71.9333 62.5371 72.488C61.0865 73.0427 59.4225 73.32 57.5451 73.32ZM71.1806 73C70.946 73 70.754 72.9253 70.6046 72.776C70.4553 72.6267 70.3806 72.4347 70.3806 72.2V51.4C70.3806 51.1653 70.4553 50.9733 70.6046 50.824C70.754 50.6747 70.946 50.6 71.1806 50.6H75.4686C75.7033 50.6 75.8953 50.6747 76.0446 50.824C76.194 50.9733 76.2686 51.1653 76.2686 51.4V72.2C76.2686 72.4347 76.194 72.6267 76.0446 72.776C75.8953 72.9253 75.7033 73 75.4686 73H71.1806Z" fill="white"/>
</g>
<defs>
<clipPath id="clip0_112_51">
<rect width="100" height="104" fill="white"/>
</clipPath>
</defs>
</svg>
