<svg width="100" height="100" viewBox="0 0 100 100" fill="none" xmlns="http://www.w3.org/2000/svg">
<g clip-path="url(#clip0_112_24)">
<path d="M47 4H58L84 30V41M47 4L24.967 4.06771C20.0147 4.06771 16 8.13849 16 13.1599V86.9078C16 91.9292 20.0147 96 24.967 96H75.033C79.9853 96 84 91.9292 84 86.9078V41M47 4C51.9817 4 55.5297 8.10869 55.5297 13.1599V27.8085C55.5297 32.8597 55.7788 33.0617 60.7604 33.0617H75.033C81.2601 33.0617 84 35.9488 84 41" stroke="#787CB4" stroke-width="8" stroke-linecap="round" stroke-linejoin="round"/>
<rect y="44" width="100" height="32" rx="4" fill="#787CB4"/>
<path d="M18.4931 71C18.2585 71 18.0665 70.9253 17.9171 70.776C17.7678 70.6267 17.6931 70.4347 17.6931 70.2V49.4C17.6931 49.1653 17.7678 48.9733 17.9171 48.824C18.0665 48.6747 18.2585 48.6 18.4931 48.6H27.4531C29.2238 48.6 30.7598 48.8773 32.0611 49.432C33.3838 49.9653 34.4078 50.776 35.1331 51.864C35.8798 52.952 36.2531 54.328 36.2531 55.992C36.2531 57.6347 35.8798 58.9893 35.1331 60.056C34.4078 61.1227 33.3838 61.912 32.0611 62.424C30.7598 62.936 29.2238 63.192 27.4531 63.192H23.6451V70.2C23.6451 70.4347 23.5598 70.6267 23.3891 70.776C23.2398 70.9253 23.0478 71 22.8131 71H18.4931ZM23.5491 58.776H27.2931C28.2105 58.776 28.9358 58.5413 29.4691 58.072C30.0238 57.6027 30.3011 56.888 30.3011 55.928C30.3011 55.1173 30.0665 54.4347 29.5971 53.88C29.1278 53.3253 28.3598 53.048 27.2931 53.048H23.5491V58.776ZM40.1181 71C39.8835 71 39.6915 70.9253 39.5421 70.776C39.3928 70.6267 39.3181 70.4347 39.3181 70.2V49.4C39.3181 49.1653 39.3928 48.9733 39.5421 48.824C39.6915 48.6747 39.8835 48.6 40.1181 48.6H44.2461C44.4808 48.6 44.6728 48.6747 44.8221 48.824C44.9715 48.9733 45.0461 49.1653 45.0461 49.4V57.112H52.9501V49.4C52.9501 49.1653 53.0248 48.9733 53.1741 48.824C53.3235 48.6747 53.5155 48.6 53.7501 48.6H57.8781C58.1128 48.6 58.3048 48.6747 58.4541 48.824C58.6035 48.9733 58.6781 49.1653 58.6781 49.4V70.2C58.6781 70.4347 58.6035 70.6267 58.4541 70.776C58.3048 70.9253 58.1128 71 57.8781 71H53.7501C53.5155 71 53.3235 70.9253 53.1741 70.776C53.0248 70.6267 52.9501 70.4347 52.9501 70.2V62.232H45.0461V70.2C45.0461 70.4347 44.9715 70.6267 44.8221 70.776C44.6728 70.9253 44.4808 71 44.2461 71H40.1181ZM63.9619 71C63.7272 71 63.5352 70.9253 63.3859 70.776C63.2365 70.6267 63.1619 70.4347 63.1619 70.2V49.4C63.1619 49.1653 63.2365 48.9733 63.3859 48.824C63.5352 48.6747 63.7272 48.6 63.9619 48.6H72.9219C74.6925 48.6 76.2285 48.8773 77.5299 49.432C78.8525 49.9653 79.8765 50.776 80.6019 51.864C81.3485 52.952 81.7219 54.328 81.7219 55.992C81.7219 57.6347 81.3485 58.9893 80.6019 60.056C79.8765 61.1227 78.8525 61.912 77.5299 62.424C76.2285 62.936 74.6925 63.192 72.9219 63.192H69.1139V70.2C69.1139 70.4347 69.0285 70.6267 68.8579 70.776C68.7085 70.9253 68.5165 71 68.2819 71H63.9619ZM69.0179 58.776H72.7619C73.6792 58.776 74.4045 58.5413 74.9379 58.072C75.4925 57.6027 75.7699 56.888 75.7699 55.928C75.7699 55.1173 75.5352 54.4347 75.0659 53.88C74.5965 53.3253 73.8285 53.048 72.7619 53.048H69.0179V58.776Z" fill="white"/>
</g>
<defs>
<clipPath id="clip0_112_24">
<rect width="100" height="100" fill="white"/>
</clipPath>
</defs>
</svg>
