<svg width="100" height="100" viewBox="0 0 100 100" fill="none" xmlns="http://www.w3.org/2000/svg">
<g clip-path="url(#clip0_112_28)">
<path d="M47 4H58L84 30V41M47 4L24.967 4.06771C20.0147 4.06771 16 8.13849 16 13.1599V86.9078C16 91.9292 20.0147 96 24.967 96H75.033C79.9853 96 84 91.9292 84 86.9078V41M47 4C51.9817 4 55.5297 8.10869 55.5297 13.1599V27.8085C55.5297 32.8597 55.7788 33.0617 60.7604 33.0617H75.033C81.2601 33.0617 84 35.9488 84 41" stroke="#4689BB" stroke-width="8" stroke-linecap="round" stroke-linejoin="round"/>
<rect y="44" width="100" height="32" rx="4" fill="#4689BB"/>
<path d="M31.165 71C30.9303 71 30.7383 70.9253 30.589 70.776C30.4397 70.6267 30.365 70.4347 30.365 70.2V49.4C30.365 49.1653 30.4397 48.9733 30.589 48.824C30.7383 48.6747 30.9303 48.6 31.165 48.6H40.125C41.8957 48.6 43.4317 48.8773 44.733 49.432C46.0557 49.9653 47.0797 50.776 47.805 51.864C48.5517 52.952 48.925 54.328 48.925 55.992C48.925 57.6347 48.5517 58.9893 47.805 60.056C47.0797 61.1227 46.0557 61.912 44.733 62.424C43.4317 62.936 41.8957 63.192 40.125 63.192H36.317V70.2C36.317 70.4347 36.2317 70.6267 36.061 70.776C35.9117 70.9253 35.7197 71 35.485 71H31.165ZM36.221 58.776H39.965C40.8823 58.776 41.6077 58.5413 42.141 58.072C42.6957 57.6027 42.973 56.888 42.973 55.928C42.973 55.1173 42.7383 54.4347 42.269 53.88C41.7997 53.3253 41.0317 53.048 39.965 53.048H36.221V58.776ZM57.8938 71C57.6804 71 57.4884 70.9253 57.3177 70.776C57.1684 70.6267 57.0938 70.4347 57.0938 70.2V63.32L49.6698 49.624C49.6484 49.56 49.6271 49.5067 49.6058 49.464C49.5844 49.4 49.5738 49.336 49.5738 49.272C49.5738 49.1013 49.6378 48.952 49.7658 48.824C49.9151 48.6747 50.0858 48.6 50.2778 48.6H54.2778C54.5978 48.6 54.8431 48.6853 55.0138 48.856C55.2058 49.0053 55.3231 49.144 55.3658 49.272L59.9738 57.528L64.5818 49.272C64.6458 49.144 64.7631 49.0053 64.9338 48.856C65.1258 48.6853 65.3818 48.6 65.7018 48.6H69.7018C69.8938 48.6 70.0538 48.6747 70.1818 48.824C70.3098 48.952 70.3738 49.1013 70.3738 49.272C70.3738 49.336 70.3631 49.4 70.3418 49.464C70.3418 49.5067 70.3311 49.56 70.3098 49.624L62.8538 63.32V70.2C62.8538 70.4347 62.7791 70.6267 62.6298 70.776C62.4804 70.9253 62.2884 71 62.0538 71H57.8938Z" fill="white"/>
</g>
<defs>
<clipPath id="clip0_112_28">
<rect width="100" height="100" fill="white"/>
</clipPath>
</defs>
</svg>
