<svg width="100" height="100" viewBox="0 0 100 100" fill="none" xmlns="http://www.w3.org/2000/svg">
<g clip-path="url(#clip0_112_32)">
<path d="M47 4H58L84 30V41M47 4L24.967 4.06771C20.0147 4.06771 16 8.13849 16 13.1599V86.9078C16 91.9292 20.0147 96 24.967 96H75.033C79.9853 96 84 91.9292 84 86.9078V41M47 4C51.9817 4 55.5297 8.10869 55.5297 13.1599V27.8085C55.5297 32.8597 55.7788 33.0617 60.7604 33.0617H75.033C81.2601 33.0617 84 35.9488 84 41" stroke="#AAAAAA" stroke-width="8" stroke-linecap="round" stroke-linejoin="round"/>
<rect y="44" width="100" height="32" rx="4" fill="#AAAAAA"/>
<path d="M21.1338 71C20.8991 71 20.7071 70.9253 20.5578 70.776C20.4084 70.6267 20.3338 70.4347 20.3338 70.2V49.4C20.3338 49.1653 20.4084 48.9733 20.5578 48.824C20.7071 48.6747 20.8991 48.6 21.1338 48.6H29.8378C32.5898 48.6 34.7551 49.24 36.3338 50.52C37.9338 51.7787 38.7338 53.5707 38.7338 55.896C38.7338 57.4107 38.3604 58.6907 37.6138 59.736C36.8884 60.7813 35.9284 61.5707 34.7338 62.104L39.1498 69.976C39.2138 70.104 39.2458 70.2213 39.2458 70.328C39.2458 70.4987 39.1711 70.6587 39.0218 70.808C38.8938 70.936 38.7338 71 38.5418 71H34.3178C33.9124 71 33.6138 70.904 33.4218 70.712C33.2298 70.4987 33.0911 70.3067 33.0058 70.136L29.3578 63.096H26.0618V70.2C26.0618 70.4347 25.9871 70.6267 25.8378 70.776C25.6884 70.9253 25.4964 71 25.2618 71H21.1338ZM26.0618 58.584H29.7738C30.7764 58.584 31.5231 58.3387 32.0138 57.848C32.5258 57.3573 32.7818 56.6853 32.7818 55.832C32.7818 55 32.5364 54.328 32.0458 53.816C31.5764 53.304 30.8191 53.048 29.7738 53.048H26.0618V58.584ZM47.968 71C47.7333 71 47.5413 70.9253 47.392 70.776C47.2427 70.6267 47.168 70.4347 47.168 70.2V53.624H41.472C41.2373 53.624 41.0453 53.5493 40.896 53.4C40.7467 53.2293 40.672 53.0373 40.672 52.824V49.4C40.672 49.1653 40.7467 48.9733 40.896 48.824C41.0453 48.6747 41.2373 48.6 41.472 48.6H58.688C58.9227 48.6 59.1147 48.6747 59.264 48.824C59.4133 48.9733 59.488 49.1653 59.488 49.4V52.824C59.488 53.0373 59.4133 53.2293 59.264 53.4C59.1147 53.5493 58.9227 53.624 58.688 53.624H52.992V70.2C52.992 70.4347 52.9173 70.6267 52.768 70.776C52.6187 70.9253 52.4267 71 52.192 71H47.968ZM63.1963 71C62.9616 71 62.7696 70.9253 62.6203 70.776C62.4709 70.6267 62.3963 70.4347 62.3963 70.2V49.4C62.3963 49.1653 62.4709 48.9733 62.6203 48.824C62.7696 48.6747 62.9616 48.6 63.1963 48.6H77.8843C78.1189 48.6 78.3109 48.6747 78.4603 48.824C78.6309 48.9733 78.7163 49.1653 78.7163 49.4V52.632C78.7163 52.8667 78.6309 53.0587 78.4603 53.208C78.3109 53.3573 78.1189 53.432 77.8843 53.432H68.0283V58.136H77.2443C77.4789 58.136 77.6709 58.2213 77.8203 58.392C77.9909 58.5413 78.0763 58.7333 78.0763 58.968V62.168C78.0763 62.3813 77.9909 62.5733 77.8203 62.744C77.6709 62.8933 77.4789 62.968 77.2443 62.968H68.0283V70.2C68.0283 70.4347 67.9536 70.6267 67.8043 70.776C67.6549 70.9253 67.4629 71 67.2283 71H63.1963Z" fill="white"/>
</g>
<defs>
<clipPath id="clip0_112_32">
<rect width="100" height="100" fill="white"/>
</clipPath>
</defs>
</svg>
