<svg width="100" height="100" viewBox="0 0 100 100" fill="none" xmlns="http://www.w3.org/2000/svg">
<g clip-path="url(#clip0_111_18)">
<path d="M47 4H58L84 30V41M47 4L24.967 4.06771C20.0147 4.06771 16 8.13849 16 13.1599V86.9078C16 91.9292 20.0147 96 24.967 96H75.033C79.9853 96 84 91.9292 84 86.9078V41M47 4C51.9817 4 55.5297 8.10869 55.5297 13.1599V27.8085C55.5297 32.8597 55.7788 33.0617 60.7604 33.0617H75.033C81.2601 33.0617 84 35.9488 84 41" stroke="#AAAAAA" stroke-width="8" stroke-linecap="round" stroke-linejoin="round"/>
<rect y="44" width="100" height="32" rx="4" fill="#AAAAAA"/>
<path d="M26.2649 71C26.0302 71 25.8382 70.9253 25.6889 70.776C25.5395 70.6267 25.4649 70.4347 25.4649 70.2V53.624H19.7689C19.5342 53.624 19.3422 53.5493 19.1929 53.4C19.0435 53.2293 18.9689 53.0373 18.9689 52.824V49.4C18.9689 49.1653 19.0435 48.9733 19.1929 48.824C19.3422 48.6747 19.5342 48.6 19.7689 48.6H36.9849C37.2195 48.6 37.4115 48.6747 37.5609 48.824C37.7102 48.9733 37.7849 49.1653 37.7849 49.4V52.824C37.7849 53.0373 37.7102 53.2293 37.5609 53.4C37.4115 53.5493 37.2195 53.624 36.9849 53.624H31.2889V70.2C31.2889 70.4347 31.2142 70.6267 31.0649 70.776C30.9155 70.9253 30.7235 71 30.4889 71H26.2649ZM39.5091 71C39.3171 71 39.1465 70.936 38.9971 70.808C38.8691 70.6587 38.8051 70.4987 38.8051 70.328C38.8051 70.264 38.8158 70.2 38.8371 70.136C38.8585 70.072 38.8905 70.008 38.9331 69.944L45.9091 59.576L39.4451 49.656C39.3811 49.528 39.3491 49.4 39.3491 49.272C39.3491 49.1013 39.4131 48.952 39.5411 48.824C39.6691 48.6747 39.8291 48.6 40.0211 48.6H44.6611C44.9811 48.6 45.2265 48.6853 45.3971 48.856C45.5678 49.0053 45.6851 49.144 45.7491 49.272L49.5891 55.096L53.4611 49.272C53.5465 49.144 53.6745 49.0053 53.8451 48.856C54.0158 48.6853 54.2611 48.6 54.5811 48.6H58.9651C59.1571 48.6 59.3171 48.6747 59.4451 48.824C59.5945 48.952 59.6691 49.1013 59.6691 49.272C59.6691 49.4213 59.6265 49.5493 59.5411 49.656L53.0451 59.544L60.0851 69.944C60.1278 70.008 60.1491 70.072 60.1491 70.136C60.1705 70.2 60.1811 70.264 60.1811 70.328C60.1811 70.4987 60.1171 70.6587 59.9891 70.808C59.8611 70.936 59.7011 71 59.5091 71H54.7411C54.4211 71 54.1651 70.9253 53.9731 70.776C53.8025 70.6053 53.6851 70.4667 53.6211 70.36L49.3651 64.216L45.2051 70.36C45.1411 70.4667 45.0238 70.6053 44.8531 70.776C44.6825 70.9253 44.4371 71 44.1171 71H39.5091ZM68.5149 71C68.2802 71 68.0882 70.9253 67.9389 70.776C67.7895 70.6267 67.7149 70.4347 67.7149 70.2V53.624H62.0189C61.7842 53.624 61.5922 53.5493 61.4429 53.4C61.2935 53.2293 61.2189 53.0373 61.2189 52.824V49.4C61.2189 49.1653 61.2935 48.9733 61.4429 48.824C61.5922 48.6747 61.7842 48.6 62.0189 48.6H79.2349C79.4695 48.6 79.6615 48.6747 79.8109 48.824C79.9602 48.9733 80.0349 49.1653 80.0349 49.4V52.824C80.0349 53.0373 79.9602 53.2293 79.8109 53.4C79.6615 53.5493 79.4695 53.624 79.2349 53.624H73.5389V70.2C73.5389 70.4347 73.4642 70.6267 73.3149 70.776C73.1655 70.9253 72.9735 71 72.7389 71H68.5149Z" fill="white"/>
</g>
<defs>
<clipPath id="clip0_111_18">
<rect width="100" height="100" fill="white"/>
</clipPath>
</defs>
</svg>
