<svg width="100" height="100" viewBox="0 0 100 100" fill="none" xmlns="http://www.w3.org/2000/svg">
<g clip-path="url(#clip0_112_4)">
<path d="M47 4H58L84 30V41M47 4L24.967 4.06771C20.0147 4.06771 16 8.13849 16 13.1599V86.9078C16 91.9292 20.0147 96 24.967 96H75.033C79.9853 96 84 91.9292 84 86.9078V41M47 4C51.9817 4 55.5297 8.10869 55.5297 13.1599V27.8085C55.5297 32.8597 55.7788 33.0617 60.7604 33.0617H75.033C81.2601 33.0617 84 35.9488 84 41" stroke="#C50000" stroke-width="8" stroke-linecap="round" stroke-linejoin="round"/>
<rect y="44" width="100" height="32" rx="4" fill="#C50000"/>
<path d="M16.2279 71C16.0359 71 15.8652 70.936 15.7159 70.808C15.5879 70.6587 15.5239 70.4987 15.5239 70.328C15.5239 70.264 15.5345 70.2 15.5559 70.136C15.5772 70.072 15.6092 70.008 15.6519 69.944L22.6279 59.576L16.1639 49.656C16.0999 49.528 16.0679 49.4 16.0679 49.272C16.0679 49.1013 16.1319 48.952 16.2599 48.824C16.3879 48.6747 16.5479 48.6 16.7399 48.6H21.3799C21.6999 48.6 21.9452 48.6853 22.1159 48.856C22.2865 49.0053 22.4039 49.144 22.4679 49.272L26.3079 55.096L30.1799 49.272C30.2652 49.144 30.3932 49.0053 30.5639 48.856C30.7345 48.6853 30.9799 48.6 31.2999 48.6H35.6839C35.8759 48.6 36.0359 48.6747 36.1639 48.824C36.3132 48.952 36.3879 49.1013 36.3879 49.272C36.3879 49.4213 36.3452 49.5493 36.2599 49.656L29.7639 59.544L36.8039 69.944C36.8465 70.008 36.8679 70.072 36.8679 70.136C36.8892 70.2 36.8999 70.264 36.8999 70.328C36.8999 70.4987 36.8359 70.6587 36.7079 70.808C36.5799 70.936 36.4199 71 36.2279 71H31.4599C31.1399 71 30.8839 70.9253 30.6919 70.776C30.5212 70.6053 30.4039 70.4667 30.3399 70.36L26.0839 64.216L21.9239 70.36C21.8599 70.4667 21.7425 70.6053 21.5719 70.776C21.4012 70.9253 21.1559 71 20.8359 71H16.2279ZM40.3056 71C40.0923 71 39.9003 70.9253 39.7296 70.776C39.5803 70.6267 39.5056 70.4347 39.5056 70.2V49.4C39.5056 49.1653 39.5803 48.9733 39.7296 48.824C39.9003 48.6747 40.0923 48.6 40.3056 48.6H43.7616C44.103 48.6 44.359 48.696 44.5296 48.888C44.7216 49.0587 44.839 49.1973 44.8816 49.304L50.5136 59.416L56.1456 49.304C56.2096 49.1973 56.3163 49.0587 56.4656 48.888C56.6363 48.696 56.903 48.6 57.2656 48.6H60.6896C60.9243 48.6 61.1163 48.6747 61.2656 48.824C61.4363 48.9733 61.5216 49.1653 61.5216 49.4V70.2C61.5216 70.4347 61.4363 70.6267 61.2656 70.776C61.1163 70.9253 60.9243 71 60.6896 71H56.8816C56.647 71 56.4443 70.9253 56.2736 70.776C56.1243 70.6267 56.0496 70.4347 56.0496 70.2V58.2L52.4336 64.888C52.3483 65.08 52.2203 65.2507 52.0496 65.4C51.879 65.5493 51.6443 65.624 51.3456 65.624H49.6816C49.383 65.624 49.1483 65.5493 48.9776 65.4C48.807 65.2507 48.6683 65.08 48.5616 64.888L44.9456 58.2V70.2C44.9456 70.4347 44.871 70.6267 44.7216 70.776C44.5723 70.9253 44.3803 71 44.1456 71H40.3056ZM66.7744 71C66.5397 71 66.3477 70.9253 66.1984 70.776C66.049 70.6267 65.9744 70.4347 65.9744 70.2V49.4C65.9744 49.1653 66.049 48.9733 66.1984 48.824C66.3477 48.6747 66.5397 48.6 66.7744 48.6H70.9984C71.2117 48.6 71.393 48.6747 71.5424 48.824C71.713 48.9733 71.7984 49.1653 71.7984 49.4V66.168H81.4624C81.697 66.168 81.889 66.2533 82.0384 66.424C82.209 66.5733 82.2944 66.7653 82.2944 67V70.2C82.2944 70.4347 82.209 70.6267 82.0384 70.776C81.889 70.9253 81.697 71 81.4624 71H66.7744Z" fill="white"/>
</g>
<defs>
<clipPath id="clip0_112_4">
<rect width="100" height="100" fill="white"/>
</clipPath>
</defs>
</svg>
