<svg width="100" height="100" viewBox="0 0 100 100" fill="none" xmlns="http://www.w3.org/2000/svg">
<g clip-path="url(#clip0_112_55)">
<path d="M47 4H58L84 30V41M47 4L24.967 4.06771C20.0147 4.06771 16 8.13849 16 13.1599V86.9078C16 91.9292 20.0147 96 24.967 96H75.033C79.9853 96 84 91.9292 84 86.9078V41M47 4C51.9817 4 55.5297 8.10869 55.5297 13.1599V27.8085C55.5297 32.8597 55.7788 33.0617 60.7604 33.0617H75.033C81.2601 33.0617 84 35.9488 84 41" stroke="#DAC458" stroke-width="8" stroke-linecap="round" stroke-linejoin="round"/>
<rect y="44" width="100" height="32" rx="4" fill="#DAC458"/>
<path d="M25.1098 71C24.8751 71 24.6831 70.9253 24.5338 70.776C24.3844 70.6053 24.3098 70.4133 24.3098 70.2V67.064C24.3098 66.7653 24.3631 66.52 24.4698 66.328C24.5978 66.136 24.7044 65.9973 24.7898 65.912L35.0938 53.368H25.3978C25.1844 53.368 24.9924 53.2933 24.8218 53.144C24.6724 52.9947 24.5978 52.8027 24.5978 52.568V49.4C24.5978 49.1653 24.6724 48.9733 24.8218 48.824C24.9924 48.6747 25.1844 48.6 25.3978 48.6H41.5258C41.7604 48.6 41.9524 48.6747 42.1018 48.824C42.2724 48.9733 42.3578 49.1653 42.3578 49.4V52.504C42.3578 52.7387 42.3151 52.9413 42.2298 53.112C42.1658 53.2827 42.0698 53.4427 41.9418 53.592L31.9258 66.168H41.9097C42.1444 66.168 42.3364 66.2533 42.4858 66.424C42.6564 66.5733 42.7418 66.7653 42.7418 67V70.2C42.7418 70.4347 42.6564 70.6267 42.4858 70.776C42.3364 70.9253 42.1444 71 41.9097 71H25.1098ZM46.9463 71C46.7116 71 46.5196 70.9253 46.3703 70.776C46.2209 70.6267 46.1463 70.4347 46.1463 70.2V49.4C46.1463 49.1653 46.2209 48.9733 46.3703 48.824C46.5196 48.6747 46.7116 48.6 46.9463 48.6H51.2343C51.4689 48.6 51.6609 48.6747 51.8103 48.824C51.9596 48.9733 52.0343 49.1653 52.0343 49.4V70.2C52.0343 70.4347 51.9596 70.6267 51.8103 70.776C51.6609 70.9253 51.4689 71 51.2343 71H46.9463ZM57.3213 71C57.0866 71 56.8946 70.9253 56.7453 70.776C56.5959 70.6267 56.5213 70.4347 56.5213 70.2V49.4C56.5213 49.1653 56.5959 48.9733 56.7453 48.824C56.8946 48.6747 57.0866 48.6 57.3213 48.6H66.2813C68.0519 48.6 69.5879 48.8773 70.8893 49.432C72.2119 49.9653 73.2359 50.776 73.9613 51.864C74.7079 52.952 75.0813 54.328 75.0813 55.992C75.0813 57.6347 74.7079 58.9893 73.9613 60.056C73.2359 61.1227 72.2119 61.912 70.8893 62.424C69.5879 62.936 68.0519 63.192 66.2813 63.192H62.4733V70.2C62.4733 70.4347 62.3879 70.6267 62.2173 70.776C62.0679 70.9253 61.8759 71 61.6413 71H57.3213ZM62.3773 58.776H66.1213C67.0386 58.776 67.7639 58.5413 68.2973 58.072C68.8519 57.6027 69.1293 56.888 69.1293 55.928C69.1293 55.1173 68.8946 54.4347 68.4253 53.88C67.9559 53.3253 67.1879 53.048 66.1213 53.048H62.3773V58.776Z" fill="white"/>
</g>
<defs>
<clipPath id="clip0_112_55">
<rect width="100" height="100" fill="white"/>
</clipPath>
</defs>
</svg>
